<svg xmlns="http://www.w3.org/2000/svg" width="26.64" height="26.64" viewBox="0 0 26.64 26.64">
  <g id="bankruptcy" transform="translate(0)">
    <path id="Path_293" data-name="Path 293" d="M26.452,173.823a.391.391,0,0,0-.383-.013l-2.287,1.182a.391.391,0,0,0,.359.695l1.716-.887v8.286l-1,.685a.391.391,0,0,0-.162.244,8.147,8.147,0,0,1-.919,2.321v-6.183a.394.394,0,0,0-.6-.328,4.709,4.709,0,0,1-4.161.479,7.061,7.061,0,0,1-2-1,.391.391,0,0,0-.334-.072c-.02,0-1.979.485-3.665.8a1.453,1.453,0,0,1-1.268-.271.359.359,0,0,1,.066-.587l5.316-2.794a2.928,2.928,0,0,1,1.846-.293l1.389.238a5.748,5.748,0,0,0,2.22-.053.391.391,0,0,0-.169-.764,4.967,4.967,0,0,1-1.919.046l-1.389-.238a3.713,3.713,0,0,0-2.342.371L12.18,178.1H6.785a.391.391,0,1,0,0,.782h4.232a1.143,1.143,0,0,0-.111,1H4.182a.391.391,0,0,0-.391.391,1.639,1.639,0,0,1-1.516,1.666.391.391,0,0,0-.391.391v4.814a.391.391,0,0,0,.391.391A1.639,1.639,0,0,1,3.791,189.2a.391.391,0,0,0,.391.391H15.077a.391.391,0,0,0,0-.782H4.541a2.58,2.58,0,0,0-.626-1.3,2.255,2.255,0,0,0-1.249-.724v-4.106a2.256,2.256,0,0,0,1.249-.724,2.58,2.58,0,0,0,.626-1.3h7.17a2.348,2.348,0,0,0,1.449.143c.239-.045.484-.094.727-.143h3.894a7.8,7.8,0,0,0,.968.383q.237.075.471.132a2.693,2.693,0,0,0,1.889,1.5v4.124a2.666,2.666,0,0,0-2.055,2.012H16.641a.391.391,0,0,0,0,.782h2.766a.391.391,0,0,0,.391-.391,1.794,1.794,0,0,1,1.7-1.657.391.391,0,0,0,.391-.391v-4.832a.391.391,0,0,0-.391-.391,1.765,1.765,0,0,1-1.239-.586c.136.01.271.015.405.015a5.28,5.28,0,0,0,2.326-.532v9.456a.3.3,0,0,1-.3.3H1.086a.3.3,0,0,1-.3-.3V179.186a.3.3,0,0,1,.3-.3H5.221a.391.391,0,0,0,0-.782H1.086A1.088,1.088,0,0,0,0,179.186v11.092a1.088,1.088,0,0,0,1.086,1.087h21.6a1.088,1.088,0,0,0,1.086-1.087v-2.691a7.4,7.4,0,0,0,1.649-3.258l1.046-.716a.391.391,0,0,0,.17-.323v-9.134a.391.391,0,0,0-.188-.334Z" transform="translate(0 -164.724)" fill="#fff"/>
    <path id="Path_294" data-name="Path 294" d="M165.492,324.793a3.277,3.277,0,1,0,3.277-3.278A3.281,3.281,0,0,0,165.492,324.793Zm5.772,0a2.495,2.495,0,1,1-2.495-2.5A2.5,2.5,0,0,1,171.264,324.793Z" transform="translate(-156.881 -304.786)" fill="#fff"/>
    <path id="Path_295" data-name="Path 295" d="M142.1,10.608a1.165,1.165,0,0,0,1.237-.131l1.093-.856a5.042,5.042,0,0,0,2.081.429,5.04,5.04,0,0,0,4.974-5.142A5.024,5.024,0,0,0,146.46,0h-.012a5.06,5.06,0,0,0-5.01,5.081V9.553A1.165,1.165,0,0,0,142.1,10.608Zm.122-5.527a4.277,4.277,0,0,1,4.23-4.3,4.236,4.236,0,0,1,3.05,7.191,4.226,4.226,0,0,1-4.948.842.391.391,0,0,0-.417.041l-1.283,1.005a.393.393,0,0,1-.632-.308Z" transform="translate(-134.078 0)" fill="#fff"/>
    <path id="Path_296" data-name="Path 296" d="M210.778,69.843a.391.391,0,0,0,.547-.08l2.064-2.775a.391.391,0,1,0-.627-.467L210.7,69.3A.391.391,0,0,0,210.778,69.843Z" transform="translate(-199.661 -62.911)" fill="#fff"/>
    <path id="Path_297" data-name="Path 297" d="M207.875,71.061a.391.391,0,0,0,.391-.391v-.53a.391.391,0,1,0-.782,0v.53A.391.391,0,0,0,207.875,71.061Z" transform="translate(-196.688 -66.12)" fill="#fff"/>
    <path id="Path_298" data-name="Path 298" d="M253.415,106.652v.53a.391.391,0,0,0,.782,0v-.53a.391.391,0,0,0-.782,0Z" transform="translate(-240.229 -100.732)" fill="#fff"/>
  </g>
</svg>
