<svg xmlns="http://www.w3.org/2000/svg" width="26.64" height="26.332" viewBox="0 0 26.64 26.332">
  <g id="debtratio" transform="translate(-1.29 -1.29)">
    <path id="Path_289" data-name="Path 289" d="M25.349,10.424A4.768,4.768,0,1,0,18.08,6.369a4.7,4.7,0,0,0,.581,2.277l-2.316,2.316-6.2-6.2a.437.437,0,0,0-.616,0L7.453,6.842,1.906,1.29l-.616.616L7.145,7.761a.437.437,0,0,0,.616,0L9.839,5.679l6.2,6.2a.44.44,0,0,0,.616,0l2.5-2.5a4.771,4.771,0,0,0,3.7,1.761,4.709,4.709,0,0,0,1.679-.312l2.785,2.789L27.93,13Zm-2.5-.152a3.9,3.9,0,1,1,3.9-3.9,3.9,3.9,0,0,1-3.9,3.9Z" fill="#fff"/>
    <path id="Path_290" data-name="Path 290" d="M48.867,12.072h.867V11.2a.867.867,0,0,0,.867-.867V9.47a.867.867,0,0,0-.867-.867h-.867V7.735H50.6V6.867h-.867V6h-.867v.867A.867.867,0,0,0,48,7.735V8.6a.867.867,0,0,0,.867.867h.867v.867H48V11.2h.867Z" transform="translate(-26.45 -2.667)" fill="#fff"/>
    <path id="Path_291" data-name="Path 291" d="M13.036,39.337h-.867a1.3,1.3,0,1,1,0-2.6h2.6v-.867H13.036V35h-.867v.867a2.169,2.169,0,0,0,0,4.337h.867a1.3,1.3,0,1,1,0,2.6h-2.6v.867h1.735v.867h.867v-.867a2.169,2.169,0,1,0,0-4.337Z" transform="translate(-4.932 -19.089)" fill="#fff"/>
    <path id="Path_292" data-name="Path 292" d="M28.024,33.446a1.305,1.305,0,0,0-1.3-1.3h-5.2a1.305,1.305,0,0,0-1.3,1.3,1.29,1.29,0,0,0-.338-.867,1.29,1.29,0,0,0,.338-.867v-.867a1.29,1.29,0,0,0-.338-.867,1.29,1.29,0,0,0,.338-.867v-.867a1.305,1.305,0,0,0-1.3-1.3h-5.2a1.293,1.293,0,0,0-1.019.5,9.914,9.914,0,0,0-1.631-2.1,1.288,1.288,0,0,0-.239-2.16l.707-2.633a.442.442,0,0,0-.1-.4A.434.434,0,0,0,11.048,20l-2.975.425L5.1,20a.434.434,0,0,0-.386.143.442.442,0,0,0-.1.4l.707,2.633a1.288,1.288,0,0,0-.239,2.16A10.509,10.509,0,0,0,2,32.145V33.88a4.193,4.193,0,0,0,3.9,4.337h4.337a3.582,3.582,0,0,0,2.26-.833,1.3,1.3,0,0,0,1.21.833h5.2a1.305,1.305,0,0,0,1.3-1.3,1.305,1.305,0,0,0,1.3,1.3h5.2a1.305,1.305,0,0,0,1.3-1.3v-.867a1.29,1.29,0,0,0-.338-.867,1.29,1.29,0,0,0,.338-.867ZM8.012,21.3a.568.568,0,0,0,.121,0l2.386-.343-.56,2.082H6.186l-.56-2.082ZM5.9,23.9h4.337a.434.434,0,0,1,0,.867H5.9a.434.434,0,0,1,0-.867ZM10.241,37.35H5.9a3.361,3.361,0,0,1-3.036-3.47V32.145A9.571,9.571,0,0,1,6.06,25.639h4.025a9.571,9.571,0,0,1,3.192,6.506V33.88A3.361,3.361,0,0,1,10.241,37.35Zm9.108-.434a.434.434,0,0,1-.434.434h-5.2a.434.434,0,0,1-.434-.434v-.351a4.585,4.585,0,0,0,.525-.95h5.114a.434.434,0,0,1,.434.434Zm0-2.6a.434.434,0,0,1-.434.434H14.062a4.781,4.781,0,0,0,.082-.867v-.867h4.771a.434.434,0,0,1,.434.434Zm0-2.6a.434.434,0,0,1-.434.434H14.145a7.317,7.317,0,0,0-.23-1.735h5a.434.434,0,0,1,.434.434Zm0-2.6a.434.434,0,0,1-.434.434h-5.2a.228.228,0,0,1-.052-.013c-.113-.321-.239-.642-.382-.963v-.325a.434.434,0,0,1,.434-.434h5.2a.434.434,0,0,1,.434.434Zm.867,6.94a1.29,1.29,0,0,0-.338-.867,1.29,1.29,0,0,0,.338-.867,1.29,1.29,0,0,0,.338.867,1.29,1.29,0,0,0-.338.867Zm6.94.867a.434.434,0,0,1-.434.434h-5.2a.434.434,0,0,1-.434-.434v-.867a.434.434,0,0,1,.434-.434h5.2a.434.434,0,0,1,.434.434Zm0-2.6a.434.434,0,0,1-.434.434h-5.2a.434.434,0,0,1-.434-.434v-.867a.434.434,0,0,1,.434-.434h5.2a.434.434,0,0,1,.434.434Z" transform="translate(-0.402 -10.595)" fill="#fff"/>
  </g>
</svg>
