<svg xmlns="http://www.w3.org/2000/svg" width="26.195" height="26.196" viewBox="0 0 26.195 26.196">
  <g id="forclosure" transform="translate(-0.015)">
    <g id="Group_2893" data-name="Group 2893" transform="translate(0.015)">
      <g id="Group_2892" data-name="Group 2892">
        <path id="Path_322" data-name="Path 322" d="M105.62,115.209a9.6,9.6,0,1,0-9.6-9.6A9.6,9.6,0,0,0,105.62,115.209ZM98.2,105.168H96.91a8.727,8.727,0,0,1,8.273-8.273v1.287a.437.437,0,0,0,.873,0V96.9a8.727,8.727,0,0,1,8.273,8.273H112.6a.437.437,0,0,0,0,.873h1.724a8.727,8.727,0,0,1-8.273,8.273v-1.287a.437.437,0,1,0-.873,0v1.287a8.728,8.728,0,0,1-8.273-8.273H98.2a.437.437,0,0,0,0-.873Z" transform="translate(-90.776 -90.761)" fill="#fff"/>
        <path id="Path_323" data-name="Path 323" d="M62.5,9.176q-.2-.338-.413-.662l1.078-1.078a.437.437,0,0,0,0-.617L60.7,4.351a.437.437,0,0,0-.617,0L59,5.427A11.283,11.283,0,0,0,53.111,3.5V.873h3.056a.437.437,0,0,0,0-.873H49.182a.437.437,0,1,0,0,.873h3.056V3.507a11.338,11.338,0,0,0-9.386,5.661h-2.4a.437.437,0,1,0,0,.873H43.07c.011,0,.021-.006.032-.007a.432.432,0,0,0,.381-.218,10.478,10.478,0,1,1,0,10.059.432.432,0,0,0-.38-.22c-.011,0-.021-.007-.033-.007H40.451a.437.437,0,1,0,0,.873h2.4A11.346,11.346,0,0,0,62.5,9.176ZM59.718,5.952l.675-.675,1.849,1.849-.676.676A11.47,11.47,0,0,0,59.718,5.952Z" transform="translate(-37.831 0)" fill="#fff"/>
        <path id="Path_324" data-name="Path 324" d="M4.381,264.437A.437.437,0,0,0,3.944,264H.452a.437.437,0,0,0,0,.873H3.944A.437.437,0,0,0,4.381,264.437Z" transform="translate(-0.015 -249.593)" fill="#fff"/>
        <path id="Path_325" data-name="Path 325" d="M16.452,216.873h3.056a.437.437,0,1,0,0-.873H16.452a.437.437,0,1,0,0,.873Z" transform="translate(-15.142 -204.213)" fill="#fff"/>
        <path id="Path_326" data-name="Path 326" d="M19.944,312.437a.437.437,0,0,0-.437-.437H16.452a.437.437,0,0,0,0,.873h3.056A.437.437,0,0,0,19.944,312.437Z" transform="translate(-15.142 -294.974)" fill="#fff"/>
        <path id="Path_327" data-name="Path 327" d="M197.886,207.707a.437.437,0,0,0,.617,0l6.068-6.068a.437.437,0,0,0-.617-.617l-5.76,5.76-2.6-2.6a.437.437,0,0,0-.617.617Z" transform="translate(-184.225 -189.935)" fill="#fff"/>
      </g>
    </g>
  </g>
</svg>
