<svg xmlns="http://www.w3.org/2000/svg" width="26.64" height="26.196" viewBox="0 0 26.64 26.196">
  <g id="medicalbills" transform="translate(0 -4)">
    <g id="Group_2867" data-name="Group 2867" transform="translate(0 4)">
      <g id="Group_2866" data-name="Group 2866" transform="translate(0 0)">
        <path id="Path_304" data-name="Path 304" d="M24.864,9.328H21.312V5.776A1.776,1.776,0,0,0,19.536,4H3.552A1.776,1.776,0,0,0,1.776,5.776V27.088H.444A.444.444,0,0,0,0,27.532v.888A1.776,1.776,0,0,0,1.776,30.2h15.1a1.776,1.776,0,0,0,1.776-1.776V23.536H22.2a1.776,1.776,0,0,0,1.776-1.776v-4H26.2a.444.444,0,0,0,.444-.444V11.1A1.776,1.776,0,0,0,24.864,9.328ZM1.776,29.308a.888.888,0,0,1-.888-.888v-.444H15.1v.444a1.763,1.763,0,0,0,.238.888ZM17.76,5.776V28.42a.888.888,0,0,1-1.776,0v-.888a.444.444,0,0,0-.444-.444H2.664V5.776a.888.888,0,0,1,.888-.888H18.007A1.758,1.758,0,0,0,17.76,5.776Zm.888,16.872V5.776a.888.888,0,0,1,1.776,0V21.76a1.758,1.758,0,0,0,.247.888ZM23.088,11.1V21.76a.888.888,0,1,1-1.776,0V10.216h2.023A1.758,1.758,0,0,0,23.088,11.1Zm2.664,5.772H23.976V11.1a.888.888,0,1,1,1.776,0Z" transform="translate(0 -4)" fill="#fff"/>
      </g>
    </g>
    <g id="Group_2869" data-name="Group 2869" transform="translate(4.249 16.217)">
      <g id="Group_2868" data-name="Group 2868" transform="translate(0 0)">
        <rect id="Rectangle_1409" data-name="Rectangle 1409" width="10.623" height="0.531" fill="#fff"/>
      </g>
    </g>
    <g id="Group_2871" data-name="Group 2871" transform="translate(6.905 14.092)">
      <g id="Group_2870" data-name="Group 2870" transform="translate(0 0)">
        <rect id="Rectangle_1410" data-name="Rectangle 1410" width="9.561" height="1.062" fill="#fff"/>
      </g>
    </g>
    <g id="Group_2873" data-name="Group 2873" transform="translate(8.88 6.664)">
      <g id="Group_2872" data-name="Group 2872" transform="translate(0 0)">
        <path id="Path_305" data-name="Path 305" d="M162.606,55.239a1.263,1.263,0,0,0-.643-.756l-.865-.433a.379.379,0,0,1,.169-.718h.13a.38.38,0,0,1,.379.379v.065h.888v-.065a1.265,1.265,0,0,0-.888-1.2V52h-.888v.508a1.263,1.263,0,0,0-.187,2.336l.865.433A.379.379,0,0,1,161.4,56h-.13a.38.38,0,0,1-.379-.379v-.065H160v.065a1.265,1.265,0,0,0,.888,1.2v.508h.888V56.82A1.263,1.263,0,0,0,162.606,55.239Z" transform="translate(-159.999 -52)" fill="#fff"/>
      </g>
    </g>
    <g id="Group_2875" data-name="Group 2875" transform="translate(5.312 14.092)">
      <g id="Group_2874" data-name="Group 2874" transform="translate(0 0)">
        <rect id="Rectangle_1411" data-name="Rectangle 1411" width="1.062" height="1.062" fill="#fff"/>
      </g>
    </g>
    <g id="Group_2877" data-name="Group 2877" transform="translate(4.249 19.935)">
      <g id="Group_2876" data-name="Group 2876" transform="translate(0 0)">
        <rect id="Rectangle_1412" data-name="Rectangle 1412" width="10.623" height="1.062" fill="#fff"/>
      </g>
    </g>
    <g id="Group_2879" data-name="Group 2879" transform="translate(6.905 18.341)">
      <g id="Group_2878" data-name="Group 2878" transform="translate(0 0)">
        <rect id="Rectangle_1413" data-name="Rectangle 1413" width="9.561" height="0.531" fill="#fff"/>
      </g>
    </g>
    <g id="Group_2881" data-name="Group 2881" transform="translate(5.312 18.341)">
      <g id="Group_2880" data-name="Group 2880" transform="translate(0 0)">
        <rect id="Rectangle_1414" data-name="Rectangle 1414" width="1.062" height="0.531" fill="#fff"/>
      </g>
    </g>
    <g id="Group_2883" data-name="Group 2883" transform="translate(4.249 24.184)">
      <g id="Group_2882" data-name="Group 2882" transform="translate(0 0)">
        <rect id="Rectangle_1415" data-name="Rectangle 1415" width="10.623" height="0.531" fill="#fff"/>
      </g>
    </g>
    <g id="Group_2885" data-name="Group 2885" transform="translate(6.905 22.059)">
      <g id="Group_2884" data-name="Group 2884" transform="translate(0 0)">
        <rect id="Rectangle_1416" data-name="Rectangle 1416" width="9.561" height="1.062" fill="#fff"/>
      </g>
    </g>
    <g id="Group_2887" data-name="Group 2887" transform="translate(5.312 22.059)">
      <g id="Group_2886" data-name="Group 2886" transform="translate(0 0)">
        <rect id="Rectangle_1417" data-name="Rectangle 1417" width="1.062" height="1.062" fill="#fff"/>
      </g>
    </g>
  </g>
</svg>
