<svg xmlns="http://www.w3.org/2000/svg" width="19.752" height="26.196" viewBox="0 0 19.752 26.196">
  <g id="score" transform="translate(-62.972)">
    <path id="Path_306" data-name="Path 306" d="M82.341,14.252a.384.384,0,0,0-.384.384V24.789a.64.64,0,0,1-.64.64H64.379a.64.64,0,0,1-.64-.64V1.407a.64.64,0,0,1,.64-.64h1.714a.384.384,0,1,0,0-.767H64.379a1.409,1.409,0,0,0-1.407,1.407V24.789A1.409,1.409,0,0,0,64.379,26.2H81.317a1.409,1.409,0,0,0,1.407-1.407V14.636a.384.384,0,0,0-.384-.384Z" transform="translate(0 0)" fill="#fff"/>
    <path id="Path_307" data-name="Path 307" d="M151.884.819h13.43a.64.64,0,0,1,.64.64v11.41a.384.384,0,0,0,.767,0V1.459A1.409,1.409,0,0,0,165.314.052h-13.43a.384.384,0,1,0,0,.767Z" transform="translate(-83.998 -0.049)" fill="#fff"/>
    <path id="Path_308" data-name="Path 308" d="M133.905,37.753h7.342a.384.384,0,1,0,0-.767h-7.342a.128.128,0,0,1-.128-.128v-.91a.128.128,0,0,1,.128-.128H144.7a.128.128,0,0,1,.128.128v.91a.128.128,0,0,1-.128.128h-1.662a.384.384,0,1,0,0,.767H144.7a.9.9,0,0,0,.9-.9v-.91a.9.9,0,0,0-.9-.9H133.905a.9.9,0,0,0-.9.9v.91A.9.9,0,0,0,133.905,37.753Z" transform="translate(-66.454 -33.259)" fill="#fff"/>
    <path id="Path_309" data-name="Path 309" d="M204.384,128.819h7.879a.384.384,0,1,0,0-.767h-7.879a.384.384,0,0,0,0,.767Z" transform="translate(-133.812 -121.5)" fill="#fff"/>
    <path id="Path_310" data-name="Path 310" d="M204.384,158.819h5.679a.384.384,0,1,0,0-.767h-5.679a.384.384,0,0,0,0,.767Z" transform="translate(-133.812 -149.965)" fill="#fff"/>
    <path id="Path_311" data-name="Path 311" d="M204.384,228.819h7.879a.384.384,0,1,0,0-.767h-7.879a.384.384,0,0,0,0,.767Z" transform="translate(-133.812 -216.384)" fill="#fff"/>
    <path id="Path_312" data-name="Path 312" d="M204.384,258.819h3.786a.384.384,0,0,0,0-.767h-3.786a.384.384,0,0,0,0,.767Z" transform="translate(-133.812 -244.849)" fill="#fff"/>
    <path id="Path_313" data-name="Path 313" d="M204.384,328.819h7.879a.384.384,0,1,0,0-.767h-7.879a.384.384,0,0,0,0,.767Z" transform="translate(-133.812 -311.267)" fill="#fff"/>
    <path id="Path_314" data-name="Path 314" d="M204.384,358.819h2.456a.384.384,0,1,0,0-.767h-2.456a.384.384,0,1,0,0,.767Z" transform="translate(-133.812 -339.732)" fill="#fff"/>
    <path id="Path_315" data-name="Path 315" d="M263.748,370.341a.384.384,0,0,0,.5-.222l.391-1.026h2.6l.387,1.025a.384.384,0,1,0,.718-.271s-1.93-5.114-1.934-5.123a.5.5,0,0,0-.464-.311h0a.5.5,0,0,0-.464.311l-1.951,5.121A.384.384,0,0,0,263.748,370.341Zm2.191-4.675,1,2.66h-2.017Z" transform="translate(-190.269 -345.768)" fill="#fff"/>
    <path id="Path_316" data-name="Path 316" d="M355.85,396.042a.384.384,0,0,0,.384-.384V394.9h.732a.384.384,0,0,0,0-.768h-.732V393.4a.384.384,0,1,0-.767,0v.732h-.759a.384.384,0,0,0,0,.768h.759v.759A.384.384,0,0,0,355.85,396.042Z" transform="translate(-276.445 -372.907)" fill="#fff"/>
    <path id="Path_317" data-name="Path 317" d="M113.7,298.124a.384.384,0,0,0-.536.085l-.323.444a.888.888,0,0,0-.39-.091H109.9a.9.9,0,0,0-.9.9v.281a.384.384,0,1,0,.767,0v-.281a.128.128,0,0,1,.128-.128h2.456l-.981,1.349-.707-.636a.384.384,0,1,0-.513.571l1.023.921a.405.405,0,0,0,.567-.06l.841-1.156v1.7a.128.128,0,0,1-.128.128H109.9a.128.128,0,0,1-.128-.128v-.486a.384.384,0,1,0-.767,0v.486a.9.9,0,0,0,.9.9h2.558a.9.9,0,0,0,.9-.9v-2.558a.894.894,0,0,0-.017-.172l.455-.626A.384.384,0,0,0,113.7,298.124Z" transform="translate(-43.673 -282.801)" fill="#fff"/>
    <path id="Path_318" data-name="Path 318" d="M113.7,198.124a.384.384,0,0,0-.536.085l-.323.444a.888.888,0,0,0-.39-.091H109.9a.9.9,0,0,0-.9.9v2.558a.9.9,0,0,0,.9.9h2.558a.9.9,0,0,0,.9-.9v-2.558a.9.9,0,0,0-.017-.172l.455-.626A.384.384,0,0,0,113.7,198.124Zm-1.121,3.892a.128.128,0,0,1-.128.128H109.9a.128.128,0,0,1-.128-.128v-2.558a.128.128,0,0,1,.128-.128h2.456l-.981,1.349-.707-.636a.384.384,0,1,0-.513.571l1.023.921a.405.405,0,0,0,.567-.06l.841-1.156Z" transform="translate(-43.673 -187.917)" fill="#fff"/>
    <path id="Path_319" data-name="Path 319" d="M113.7,98.124a.384.384,0,0,0-.536.085l-.323.444a.888.888,0,0,0-.39-.091H109.9a.9.9,0,0,0-.9.9v2.558a.9.9,0,0,0,.9.9h2.558a.9.9,0,0,0,.9-.9V99.457a.9.9,0,0,0-.017-.172l.455-.626A.384.384,0,0,0,113.7,98.124Zm-1.121,3.892a.128.128,0,0,1-.128.128H109.9a.128.128,0,0,1-.128-.128V99.457a.128.128,0,0,1,.128-.128h2.456l-.981,1.349-.707-.636a.384.384,0,1,0-.513.571l1.023.921a.405.405,0,0,0,.567-.06l.841-1.156Z" transform="translate(-43.673 -93.034)" fill="#fff"/>
  </g>
</svg>
