<svg xmlns="http://www.w3.org/2000/svg" width="20.188" height="26.332" viewBox="0 0 20.188 26.332">
  <g id="tax" transform="translate(-0.5 0.001)">
    <path id="Path_299" data-name="Path 299" d="M13.857,7.345a1.309,1.309,0,0,0,.169-.331,1.28,1.28,0,0,1,.5.2,1.931,1.931,0,0,0,1.032.33,2,2,0,0,0,.347-.032A1.843,1.843,0,0,0,17.1,6.763a1,1,0,0,1,1.461-.258,1.843,1.843,0,0,0,1.379.3l-.153-.864A1,1,0,0,1,19,5.745a1.868,1.868,0,0,0-2.573.454,1,1,0,0,1-.674.451.87.87,0,0,1-.383-.009,1.745,1.745,0,0,0,.7-.373,1.844,1.844,0,0,0,.658-1.248,1,1,0,0,1,.359-.728.989.989,0,0,1,.779-.227,1.8,1.8,0,0,0,1.343-.432l-.566-.672a1.048,1.048,0,0,1-.779.226,1.868,1.868,0,0,0-2,1.68,1,1,0,0,1-1.136.954,1.95,1.95,0,0,0-.808.108,1.317,1.317,0,0,0-.51-.5l1.962-3.92a.439.439,0,0,0-.395-.635,1.132,1.132,0,0,1-.822-.342,2.023,2.023,0,0,0-2.742,0A1.159,1.159,0,0,1,10.6.877,1.159,1.159,0,0,1,9.773.534a2.026,2.026,0,0,0-2.744,0,1.136,1.136,0,0,1-.824.342.439.439,0,0,0-.393.635l1.96,3.92a1.3,1.3,0,0,0-.441,1.914A9.224,9.224,0,0,0,.5,16.237v7.9a2.2,2.2,0,0,0,2.194,2.194h15.8a2.2,2.2,0,0,0,2.194-2.194v-7.9a9.224,9.224,0,0,0-6.831-8.892ZM7.577,1.219a1.161,1.161,0,0,1,1.647,0,2.026,2.026,0,0,0,2.743,0,1.158,1.158,0,0,1,1.645,0,2.332,2.332,0,0,0,.712.431L12.517,5.265H8.671L6.864,1.65a2.344,2.344,0,0,0,.714-.431Zm.822,5.8a.439.439,0,1,1,0-.878h4.389a.439.439,0,0,1,0,.878ZM19.81,24.137a1.317,1.317,0,0,1-1.317,1.317H2.694a1.317,1.317,0,0,1-1.317-1.317v-7.9A8.348,8.348,0,0,1,9.716,7.9h1.755a8.348,8.348,0,0,1,8.339,8.339Zm0,0" transform="translate(0 0)" fill="#fff"/>
    <path id="Path_300" data-name="Path 300" d="M130.84,263.6l5.267-5.266.621.621-5.266,5.267Zm0,0" transform="translate(-123.19 -244.165)" fill="#fff"/>
    <path id="Path_301" data-name="Path 301" d="M193.817,320a1.317,1.317,0,1,0,1.317,1.317A1.317,1.317,0,0,0,193.817,320Zm0,1.755a.439.439,0,1,1,.439-.439A.439.439,0,0,1,193.817,321.751Zm0,0" transform="translate(-181.467 -302.442)" fill="#fff"/>
    <path id="Path_302" data-name="Path 302" d="M129.817,258.629a1.317,1.317,0,1,0-1.317-1.317A1.317,1.317,0,0,0,129.817,258.629Zm0-1.755a.439.439,0,1,1-.439.439A.439.439,0,0,1,129.817,256.874Zm0,0" transform="translate(-120.978 -241.953)" fill="#fff"/>
    <path id="Path_303" data-name="Path 303" d="M78.644,200a6.144,6.144,0,1,0,6.144,6.144A6.144,6.144,0,0,0,78.644,200Zm0,11.411a5.266,5.266,0,1,1,5.266-5.266A5.266,5.266,0,0,1,78.644,211.407Zm0,0" transform="translate(-68.05 -189.025)" fill="#fff"/>
  </g>
</svg>
