<svg xmlns="http://www.w3.org/2000/svg" width="24" height="24" viewBox="0 0 24 24">
  <g id="Depriciation" transform="translate(-2 -2)">
    <g id="Group_2901" data-name="Group 2901" transform="translate(2 2)">
      <path id="Path_1478" data-name="Path 1478" d="M15.2,2H4.4A2.407,2.407,0,0,0,2,4.4V15.2a1.2,1.2,0,0,0,1.2,1.2h0a1.2,1.2,0,0,0,1.2-1.2V4.4H15.2a1.2,1.2,0,0,0,1.2-1.2h0A1.2,1.2,0,0,0,15.2,2ZM20,6.8H9.2A2.407,2.407,0,0,0,6.8,9.2V20A1.2,1.2,0,0,0,8,21.2H8A1.2,1.2,0,0,0,9.2,20V9.2H20A1.2,1.2,0,0,0,21.2,8h0A1.2,1.2,0,0,0,20,6.8Zm3.6,4.8H14A2.407,2.407,0,0,0,11.6,14v9.6A2.407,2.407,0,0,0,14,26h9.6A2.407,2.407,0,0,0,26,23.6V14A2.407,2.407,0,0,0,23.6,11.6Z" transform="translate(-2 -2)" fill="#1e5975"/>
    </g>
  </g>
</svg>
