<svg xmlns="http://www.w3.org/2000/svg" width="29.962" height="24" viewBox="0 0 29.962 24">
  <g id="Mileage" transform="translate(-628.415 -103.809)">
    <path id="Path_1474" data-name="Path 1474" d="M28.158,13a1.5,1.5,0,0,0-.1,1.5,11.311,11.311,0,0,1,.779,2.712A11.985,11.985,0,0,1,27.8,24.295a1.5,1.5,0,0,1-1.333.794H7.514A1.5,1.5,0,0,1,6.18,24.28,11.985,11.985,0,0,1,18.48,7.1a11.521,11.521,0,0,1,3.161.839,1.506,1.506,0,1,0,1.243-2.742A14.981,14.981,0,0,0,4.023,26.482,3,3,0,0,0,6.6,27.98H27.349a3,3,0,0,0,2.607-1.5,14.981,14.981,0,0,0,.824-13.319A1.5,1.5,0,0,0,28.158,13Z" transform="translate(626.416 99.829)" fill="#1e5975"/>
    <path id="Path_1475" data-name="Path 1475" d="M10.882,15.41a3,3,0,1,0,4.24,4.24L23.6,6.93Z" transform="translate(630.404 101.299)" fill="#1e5975"/>
  </g>
</svg>
