<svg xmlns="http://www.w3.org/2000/svg" width="25.263" height="24" viewBox="0 0 25.263 24">
  <g id="Revenue_History" data-name="Revenue History" transform="translate(-2 -2)">
    <path id="Path_1472" data-name="Path 1472" d="M24.522,8.947,21.655,6.08a6.762,6.762,0,0,1,.4-1.453,1.889,1.889,0,0,0,.114-1.1A1.965,1.965,0,0,0,20.189,2a6.322,6.322,0,0,0-4.926,2.526H8.947A6.943,6.943,0,0,0,2,11.474c0,2.842,1.731,9.448,2.627,12.682A2.531,2.531,0,0,0,7.065,26H9.579a2.534,2.534,0,0,0,2.526-2.526h2.526A2.534,2.534,0,0,0,17.158,26H19.7a2.543,2.543,0,0,0,2.425-1.806L23.7,18.939l2.7-.909a1.263,1.263,0,0,0,.859-1.2V10.211A1.267,1.267,0,0,0,26,8.947Zm-9.891,1.895H10.842A1.267,1.267,0,0,1,9.579,9.579h0a1.267,1.267,0,0,1,1.263-1.263h3.789a1.267,1.267,0,0,1,1.263,1.263h0A1.267,1.267,0,0,1,14.632,10.842Zm5.053,2.526a1.263,1.263,0,1,1,1.263-1.263A1.267,1.267,0,0,1,19.684,13.368Z" transform="translate(0 0)" fill="#1e5975"/>
  </g>
</svg>
