<svg xmlns="http://www.w3.org/2000/svg" width="18.809" height="23.512" viewBox="0 0 18.809 23.512">
  <g id="Warranty" transform="translate(-4 -2)">
    <path id="Path_1471" data-name="Path 1471" d="M14.78,2H6.351A2.358,2.358,0,0,0,4,4.351V23.161a2.358,2.358,0,0,0,2.351,2.351H20.458a2.358,2.358,0,0,0,2.351-2.351V10.029a2.311,2.311,0,0,0-.694-1.658L16.438,2.694A2.311,2.311,0,0,0,14.78,2Zm3.327,15.283a4.7,4.7,0,0,1-5.161,4.679A4.839,4.839,0,0,1,8.7,17.083v-6.1A3.052,3.052,0,0,1,11.336,7.89a2.939,2.939,0,0,1,3.245,2.927v5.29A1.179,1.179,0,0,1,13.4,17.283h0a1.179,1.179,0,0,1-1.176-1.176v-5.29a.588.588,0,1,0-1.176,0v6.336A2.435,2.435,0,0,0,13,19.6a2.35,2.35,0,0,0,2.751-2.316V13.756a1.179,1.179,0,0,1,1.176-1.176h0a1.179,1.179,0,0,1,1.176,1.176Zm-2.351-9.4V4.351l4.7,4.7H16.931A1.179,1.179,0,0,1,15.756,7.878Z" transform="translate(0 0)" fill="#1e5975"/>
  </g>
</svg>
