<svg xmlns="http://www.w3.org/2000/svg" width="9.046" height="11.313" viewBox="0 0 9.046 11.313">
  <g id="account_icon" transform="translate(-51.138)">
    <path id="Path_1343" data-name="Path 1343" d="M234.436,188.486a.469.469,0,1,0-.469-.469A.47.47,0,0,0,234.436,188.486Z" transform="translate(-178.775 -183.389)" fill="#898889"/>
    <path id="Path_1344" data-name="Path 1344" d="M59.963,1.507,55.772.019a.333.333,0,0,0-.222,0l-4.19,1.487a.333.333,0,0,0-.221.313V6.21a5.156,5.156,0,0,0,4.48,5.1l.043,0,.043,0a5.156,5.156,0,0,0,4.48-5.1V1.82a.333.333,0,0,0-.221-.313Zm-2.24,5.981a.333.333,0,1,1-.665,0V7.376a1.4,1.4,0,0,0-2.794,0v.112a.333.333,0,0,1-.665,0V7.376a2.017,2.017,0,0,1,1.332-1.881,1.135,1.135,0,1,1,1.461,0,2.017,2.017,0,0,1,1.332,1.881v.112Z" transform="translate(0 0)" fill="#898889"/>
  </g>
</svg>
