<svg xmlns="http://www.w3.org/2000/svg" width="20.059" height="18.387" viewBox="0 0 20.059 18.387">
  <g id="Basic_info" transform="translate(0 -21.167)">
    <path id="Path_1434" data-name="Path 1434" d="M18.6,21.167H1.463A1.464,1.464,0,0,0,0,22.63v2.089a1.464,1.464,0,0,0,1.463,1.463H18.6a1.464,1.464,0,0,0,1.463-1.463V22.63A1.464,1.464,0,0,0,18.6,21.167Z" transform="translate(0)" fill="#686868"/>
    <path id="Path_1435" data-name="Path 1435" d="M.627,202.337H6.059a.627.627,0,0,0,0-1.254H.627a.627.627,0,0,0,0,1.254Z" transform="translate(0 -172.812)" fill="#686868"/>
    <path id="Path_1436" data-name="Path 1436" d="M.627,265.837H6.059a.627.627,0,0,0,0-1.254H.627a.627.627,0,0,0,0,1.254Z" transform="translate(0 -233.805)" fill="#686868"/>
    <path id="Path_1437" data-name="Path 1437" d="M.627,329.337H6.059a.627.627,0,0,0,0-1.254H.627a.627.627,0,0,0,0,1.254Z" transform="translate(0 -294.797)" fill="#686868"/>
    <path id="Path_1438" data-name="Path 1438" d="M.627,392.837H6.059a.627.627,0,0,0,0-1.254H.627a.627.627,0,0,0,0,1.254Z" transform="translate(0 -355.79)" fill="#686868"/>
    <path id="Path_1439" data-name="Path 1439" d="M.627,456.337H6.059a.627.627,0,0,0,0-1.254H.627a.627.627,0,0,0,0,1.254Z" transform="translate(0 -416.783)" fill="#686868"/>
    <path id="Path_1440" data-name="Path 1440" d="M221.9,201.083h-8.776a1.47,1.47,0,0,0-1.463,1.463V210.9a1.47,1.47,0,0,0,1.463,1.463H221.9a1.47,1.47,0,0,0,1.463-1.463v-8.358A1.47,1.47,0,0,0,221.9,201.083Zm-4.388,2.925a1.254,1.254,0,1,1-1.254,1.254A1.252,1.252,0,0,1,217.516,204.008Zm2.507,5.224a.631.631,0,0,1-.627.627h-3.761a.631.631,0,0,1-.627-.627v-.309a1.67,1.67,0,0,1,1.755-1.571h1.5a1.67,1.67,0,0,1,1.755,1.571Z" transform="translate(-203.308 -172.812)" fill="#686868"/>
  </g>
</svg>
