<svg xmlns="http://www.w3.org/2000/svg" width="19.028" height="25" viewBox="0 0 19.028 25">
  <g id="billlease_icon" transform="translate(-50.526)">
    <g id="Group_2834" data-name="Group 2834" transform="translate(50.526)">
      <path id="Path_1336" data-name="Path 1336" d="M68.934.642A1.047,1.047,0,0,0,67.8.815l-1.64,1.452a.117.117,0,0,1-.156,0l-2.232-2a1.063,1.063,0,0,0-1.418,0l-2.23,1.994a.118.118,0,0,1-.157,0L57.732.271a1.063,1.063,0,0,0-1.418,0l-2.232,2a.118.118,0,0,1-.157,0L52.283.815a1.055,1.055,0,0,0-1.757.8V23.388a1.057,1.057,0,0,0,1.76.8l1.64-1.452a.117.117,0,0,1,.156,0l2.232,2a1.063,1.063,0,0,0,1.418,0l2.23-1.994a.118.118,0,0,1,.157,0l2.23,1.994a1.063,1.063,0,0,0,1.418,0l2.232-2a.118.118,0,0,1,.157,0L67.8,24.185a1.055,1.055,0,0,0,1.756-.8V1.612A1.046,1.046,0,0,0,68.934.642ZM54.439,8.482h5.885a.473.473,0,0,1,0,.946H54.439a.473.473,0,1,1,0-.946Zm11.2,8.037h-11.2a.473.473,0,1,1,0-.946h11.2a.473.473,0,1,1,0,.946Zm0-3.546h-11.2a.473.473,0,1,1,0-.946h11.2a.473.473,0,1,1,0,.946Z" transform="translate(-50.526 0)" fill="#004a6d"/>
    </g>
  </g>
</svg>
