<svg xmlns="http://www.w3.org/2000/svg" width="96.214" height="95.5" viewBox="0 0 96.214 95.5">
  <g id="company_logo" transform="translate(0 -0.178)">
    <path id="Path_269" data-name="Path 269" d="M52.236,6.961,8.178.266A7.105,7.105,0,0,0,2.486,1.83,7.169,7.169,0,0,0,0,7.2V91.669a4.021,4.021,0,0,0,4.009,4.009H17.038V74.631a7,7,0,0,1,7.016-7.016H34.076a7,7,0,0,1,7.016,7.016V95.678H58.129V13.9a7.02,7.02,0,0,0-5.893-6.935ZM22.049,58.6H16.036a3.007,3.007,0,1,1,0-6.013h6.013a3.007,3.007,0,1,1,0,6.013Zm0-12.027H16.036a3.007,3.007,0,0,1,0-6.013h6.013a3.007,3.007,0,1,1,0,6.013Zm0-12.027H16.036a3.007,3.007,0,0,1,0-6.013h6.013a3.007,3.007,0,1,1,0,6.013Zm0-12.027H16.036a3.007,3.007,0,0,1,0-6.013h6.013a3.007,3.007,0,1,1,0,6.013ZM42.093,58.6H36.08a3.007,3.007,0,1,1,0-6.013h6.013a3.007,3.007,0,1,1,0,6.013Zm0-12.027H36.08a3.007,3.007,0,0,1,0-6.013h6.013a3.007,3.007,0,0,1,0,6.013Zm0-12.027H36.08a3.007,3.007,0,1,1,0-6.013h6.013a3.007,3.007,0,0,1,0,6.013Zm0-12.027H36.08a3.007,3.007,0,0,1,0-6.013h6.013a3.007,3.007,0,0,1,0,6.013Z" transform="translate(0 0)" fill="#b5b5b5"/>
    <path id="Path_270" data-name="Path 270" d="M44.043,15.328,15.5,9.351V68.077H42.56a7.023,7.023,0,0,0,7.016-7.016V22.183A6.981,6.981,0,0,0,44.043,15.328Zm-9.5,40.722H28.529a3.007,3.007,0,1,1,0-6.013h6.013a3.007,3.007,0,0,1,0,6.013Zm0-12.027H28.529a3.007,3.007,0,1,1,0-6.013h6.013a3.007,3.007,0,0,1,0,6.013Zm0-12.027H28.529a3.007,3.007,0,1,1,0-6.013h6.013a3.007,3.007,0,0,1,0,6.013Z" transform="translate(46.638 27.601)" fill="#b5b5b5"/>
  </g>
</svg>
