<svg xmlns="http://www.w3.org/2000/svg" width="11.398" height="11.313" viewBox="0 0 11.398 11.313">
  <g id="company_icon" transform="translate(0 -0.178)">
    <path id="Path_269" data-name="Path 269" d="M6.188.982.969.188A.842.842,0,0,0,.294.374.849.849,0,0,0,0,1.01V11.016a.476.476,0,0,0,.475.475H2.018V9a.829.829,0,0,1,.831-.831H4.037A.829.829,0,0,1,4.868,9v2.493H6.886V1.8a.832.832,0,0,0-.7-.822ZM2.612,7.1H1.9a.356.356,0,1,1,0-.712h.712a.356.356,0,1,1,0,.712Zm0-1.425H1.9a.356.356,0,1,1,0-.712h.712a.356.356,0,1,1,0,.712Zm0-1.425H1.9a.356.356,0,1,1,0-.712h.712a.356.356,0,1,1,0,.712Zm0-1.425H1.9a.356.356,0,0,1,0-.712h.712a.356.356,0,1,1,0,.712ZM4.987,7.1H4.274a.356.356,0,1,1,0-.712h.712a.356.356,0,1,1,0,.712Zm0-1.425H4.274a.356.356,0,1,1,0-.712h.712a.356.356,0,0,1,0,.712Zm0-1.425H4.274a.356.356,0,1,1,0-.712h.712a.356.356,0,0,1,0,.712Zm0-1.425H4.274a.356.356,0,0,1,0-.712h.712a.356.356,0,0,1,0,.712Z" transform="translate(0 0)" fill="#898889"/>
    <path id="Path_270" data-name="Path 270" d="M18.881,10.059,15.5,9.351v6.957h3.206a.832.832,0,0,0,.831-.831V10.871A.827.827,0,0,0,18.881,10.059Zm-1.126,4.824h-.712a.356.356,0,1,1,0-.712h.712a.356.356,0,0,1,0,.712Zm0-1.425h-.712a.356.356,0,1,1,0-.712h.712a.356.356,0,0,1,0,.712Zm0-1.425h-.712a.356.356,0,1,1,0-.712h.712a.356.356,0,0,1,0,.712Z" transform="translate(-8.139 -4.817)" fill="#898889"/>
  </g>
</svg>
