<svg xmlns="http://www.w3.org/2000/svg" width="16.06" height="11.313" viewBox="0 0 16.06 11.313">
  <g id="credit-card_1_" data-name="credit-card (1)" transform="translate(0 -75.668)">
    <path id="Path_1418" data-name="Path 1418" d="M14.183,77.719V77.5a1.834,1.834,0,0,0-1.832-1.832H1.832A1.834,1.834,0,0,0,0,77.5v.22Z" fill="#898889"/>
    <path id="Path_1419" data-name="Path 1419" d="M8.379,248.689a4.278,4.278,0,0,1,.87-2.6H0v2.555a1.834,1.834,0,0,0,1.832,1.832H8.766a4.3,4.3,0,0,1-.387-1.789Zm-1.288-.555H5.511v-.941H7.092Zm-4.982-.941H4.57v.941H2.11Z" transform="translate(0 -165.078)" fill="#898889"/>
    <path id="Path_1420" data-name="Path 1420" d="M10.226,172.477a4.326,4.326,0,0,1,3.957-.508v-.9H0v1.412Z" transform="translate(0 -92.405)" fill="#898889"/>
    <path id="Path_1421" data-name="Path 1421" d="M303.868,224.831a3.37,3.37,0,1,0-3.37,3.37A3.37,3.37,0,0,0,303.868,224.831Zm-2.916,1.8v.383h-.941v-.38a2.786,2.786,0,0,1-.745-.432l.556-.76c.305.223.462.331.676.331a.261.261,0,0,0,.256-.15c.044-.112-.018-.216-.168-.277a3.05,3.05,0,0,1-.983-.541,1.063,1.063,0,0,1-.261-1,1.1,1.1,0,0,1,.67-.78v-.38h.941v.364a2.739,2.739,0,0,1,.558.228l-.449.827a1.09,1.09,0,0,0-.678-.174.167.167,0,0,0-.125.128.161.161,0,0,0,.045.155,5.068,5.068,0,0,0,.638.3,1.147,1.147,0,0,1,.688,1.495A1.171,1.171,0,0,1,300.952,226.631Z" transform="translate(-287.808 -141.22)" fill="#898889"/>
  </g>
</svg>
