<svg xmlns="http://www.w3.org/2000/svg" width="111.319" height="124.538" viewBox="0 0 111.319 124.538">
  <g id="customer_img" transform="translate(0)">
    <g id="Group_819" data-name="Group 819">
      <path id="Path_251" data-name="Path 251" d="M55.656,188.952a136.9,136.9,0,0,1-46.8-9.942q-4.131-1.69-7.916-3.546a35.819,35.819,0,0,1-.57-13.3c.468-3.2,1.156-7.9,4.412-12.518,4.053-5.751,6.879-6.523,12.181-8A101.756,101.756,0,0,0,34.8,135a14.057,14.057,0,0,0,2.364-1.425,44.978,44.978,0,0,0,18.4,34.291h.2a44.978,44.978,0,0,0,18.4-34.291A14.079,14.079,0,0,0,76.522,135a101.774,101.774,0,0,0,17.83,6.649c5.3,1.476,8.129,2.248,12.182,8,3.256,4.619,3.944,9.323,4.412,12.518a35.819,35.819,0,0,1-.57,13.3q-3.785,1.848-7.916,3.546a136.9,136.9,0,0,1-46.8,9.942Z" transform="translate(0 -64.414)" fill="#b5b5b5"/>
      <path id="Path_252" data-name="Path 252" d="M100.106,178.432a54.371,54.371,0,0,1-4.5-4.227c-1.3-1.374-2.444-2.718-3.435-3.989l4.1-10.1c.613.079,1.273.141,1.976.178.655.034,1.275.041,1.856.029h.122c.58.011,1.2,0,1.855-.029.7-.037,1.363-.1,1.976-.178l4.1,10.1c-.992,1.271-2.132,2.616-3.436,3.989a54.368,54.368,0,0,1-4.5,4.227Z" transform="translate(-44.45 -77.214)" fill="#cecece"/>
      <path id="Path_253" data-name="Path 253" d="M102.937,151.968l-3.771-.153-1.12-5.225a8.03,8.03,0,0,1,1.19-.635,8.337,8.337,0,0,1,3.654-.648h.1a8.338,8.338,0,0,1,3.654.648,8.03,8.03,0,0,1,1.19.635q-.561,2.613-1.12,5.225l-3.771.153Z" transform="translate(-47.281 -70.068)" fill="#cecece"/>
      <path id="Path_254" data-name="Path 254" d="M84.208,66.468c-11.374.119-18.372-13.18-20.086-19.164-.165-.577-2.367-1.277-3.1-3.04C56.365,33.119,59.7,30.753,61.1,30.119c.392,1.365-1.74-16.37,3.59-22.14A24.989,24.989,0,0,1,84.07,0a24.991,24.991,0,0,1,19.378,7.979c5.33,5.77,3.2,23.505,3.59,22.14,1.4.633,4.737,3,.083,14.145-.736,1.763-2.937,2.462-3.1,3.04-1.713,5.984-8.711,19.283-20.086,19.164Z" transform="translate(-28.274)" fill="#b5b5b5"/>
    </g>
  </g>
</svg>
