<svg xmlns="http://www.w3.org/2000/svg" width="13.79" height="13.826" viewBox="0 0 13.79 13.826">
  <g id="edit_icon" transform="translate(-0.512 0)">
    <g id="Group_829" data-name="Group 829" transform="translate(2.474 1.945)">
      <g id="Group_828" data-name="Group 828" transform="translate(0 0)">
        <rect id="Rectangle_313" data-name="Rectangle 313" width="9.165" height="4.842" transform="translate(0 6.48) rotate(-45)" fill="#656565"/>
      </g>
    </g>
    <g id="Group_831" data-name="Group 831" transform="translate(9.576 0)">
      <g id="Group_830" data-name="Group 830" transform="translate(0 0)">
        <path id="Path_286" data-name="Path 286" d="M263.8,2.756,261.274.191a.623.623,0,0,0-.879-.018l-.018.018L259.265,1.3l3.426,3.443L263.8,3.634A.607.607,0,0,0,263.8,2.756Z" transform="translate(-259.265 0)" fill="#656565"/>
      </g>
    </g>
    <g id="Group_833" data-name="Group 833" transform="translate(0.513 9.176)">
      <g id="Group_832" data-name="Group 832">
        <path id="Path_287" data-name="Path 287" d="M1.972,261.954l-1.417,3.8a.623.623,0,0,0,.359.807.643.643,0,0,0,.448,0l3.8-1.435Z" transform="translate(-0.513 -261.954)" fill="#656565"/>
      </g>
    </g>
  </g>
</svg>
