<svg id="email-icon" xmlns="http://www.w3.org/2000/svg" width="14.889" height="12.214" viewBox="0 0 14.889 12.214">
  <path id="Path_28" data-name="Path 28" d="M7.023,64.991c2.038,1.893,5.614,5.223,6.665,6.261a.584.584,0,0,0,.9,0c1.052-1.039,4.628-4.37,6.666-6.263a.362.362,0,0,0,.044-.468A1.193,1.193,0,0,0,20.326,64H7.951a1.193,1.193,0,0,0-.971.523A.362.362,0,0,0,7.023,64.991Z" transform="translate(-6.694 -64)" fill="#1e5975"/>
  <path id="Path_29" data-name="Path 29" d="M14.709,126.443a.288.288,0,0,0-.331.049c-2.266,2.1-5.158,4.795-6.068,5.691a1.179,1.179,0,0,1-1.731,0c-.97-.956-4.218-3.976-6.068-5.691a.289.289,0,0,0-.331-.049.343.343,0,0,0-.18.308v8.532a1.3,1.3,0,0,0,1.241,1.357H13.648a1.3,1.3,0,0,0,1.241-1.357v-8.532A.342.342,0,0,0,14.709,126.443Z" transform="translate(0 -124.426)" fill="#1e5975"/>
</svg>
