<svg xmlns="http://www.w3.org/2000/svg" width="13.402" height="10.994" viewBox="0 0 13.402 10.994">
  <g id="email" transform="translate(0 -64)">
    <g id="Group_25" data-name="Group 25" transform="translate(0 64)">
      <g id="Group_24" data-name="Group 24">
        <path id="Path_28" data-name="Path 28" d="M7.012,64.892c1.835,1.7,5.054,4.7,6,5.636a.526.526,0,0,0,.809,0c.947-.936,4.166-3.933,6-5.637a.326.326,0,0,0,.039-.421A1.074,1.074,0,0,0,18.986,64H7.847a1.074,1.074,0,0,0-.874.471A.326.326,0,0,0,7.012,64.892Z" transform="translate(-6.716 -64)" fill="#898889"/>
        <path id="Path_29" data-name="Path 29" d="M13.24,126.44a.259.259,0,0,0-.3.044C10.9,128.376,8.3,130.8,7.48,131.607a1.062,1.062,0,0,1-1.559,0c-.873-.86-3.8-3.579-5.462-5.123a.261.261,0,0,0-.3-.044.309.309,0,0,0-.162.277v7.68a1.174,1.174,0,0,0,1.117,1.222H12.285A1.174,1.174,0,0,0,13.4,134.4v-7.68A.308.308,0,0,0,13.24,126.44Z" transform="translate(0 -124.625)" fill="#898889"/>
      </g>
    </g>
  </g>
</svg>
