<svg xmlns="http://www.w3.org/2000/svg" width="23.512" height="23.512" viewBox="0 0 23.512 23.512">
  <g id="heading_financing" transform="translate(0 0)">
    <path id="Path_1423" data-name="Path 1423" d="M33.066,11.021a2.056,2.056,0,0,0,1.43-.581l2.039,1.019a2.024,2.024,0,0,0-.025.25,2.066,2.066,0,0,0,4.133,0,2.041,2.041,0,0,0-.207-.885L43.2,8.059a2.041,2.041,0,0,0,.885.207A2.069,2.069,0,0,0,46.154,6.2a2.035,2.035,0,0,0-.1-.612l2.4-1.8a2.065,2.065,0,1,0-.923-1.719,2.035,2.035,0,0,0,.1.612l-2.4,1.8a2.058,2.058,0,0,0-3,2.6L39.462,9.851a2.031,2.031,0,0,0-2.316.374L35.108,9.205a2.024,2.024,0,0,0,.025-.25,2.066,2.066,0,1,0-2.066,2.066Zm0,0" transform="translate(-29.576)" fill="#1e5975"/>
    <path id="Path_1424" data-name="Path 1424" d="M22.823,165.246h-.735V150.689A.689.689,0,0,0,21.4,150H18.644a.689.689,0,0,0-.689.689v14.557H16.578V154.822a.689.689,0,0,0-.689-.689H13.134a.689.689,0,0,0-.689.689v10.424H11.067v-4.914a.689.689,0,0,0-.689-.689H7.623a.689.689,0,0,0-.689.689v4.914H5.556v-7.669a.689.689,0,0,0-.689-.689H2.112a.689.689,0,0,0-.689.689v7.669H.689a.689.689,0,1,0,0,1.378H22.823a.689.689,0,1,0,0-1.378Zm0,0" transform="translate(0 -143.112)" fill="#1e5975"/>
  </g>
</svg>
