<svg id="heading_warranty" xmlns="http://www.w3.org/2000/svg" width="23.235" height="23.512" viewBox="0 0 23.235 23.512">
  <path id="Path_1425" data-name="Path 1425" d="M65.712,9.469a9.469,9.469,0,1,0-9.469,9.469A9.48,9.48,0,0,0,65.712,9.469ZM54.554,13.508l-3.233-3.233.98-.98,2.253,2.253L60.183,5.92l.98.98Zm0,0" transform="translate(-44.625)" fill="#1e5975"/>
  <path id="Path_1426" data-name="Path 1426" d="M2.866,345.875,0,350.056l4.238-.79.79,4.238,2.684-3.915a10.909,10.909,0,0,1-4.846-3.714Zm0,0" transform="translate(0 -329.992)" fill="#1e5975"/>
  <path id="Path_1427" data-name="Path 1427" d="M342.858,345.875a10.909,10.909,0,0,1-4.846,3.714L340.7,353.5l.79-4.238,4.238.79Zm0,0" transform="translate(-322.49 -329.992)" fill="#1e5975"/>
</svg>
