<svg xmlns="http://www.w3.org/2000/svg" width="25.178" height="21.196" viewBox="0 0 25.178 21.196">
  <g id="heading_website_icon" transform="translate(0 -40.484)">
    <path id="Path_1434" data-name="Path 1434" d="M23.361,40.484H1.817A1.817,1.817,0,0,0,0,42.3V45.62H25.178V42.3A1.817,1.817,0,0,0,23.361,40.484ZM3.151,43.835a.789.789,0,1,1,.789-.789A.789.789,0,0,1,3.151,43.835Zm3.208,0a.789.789,0,1,1,.789-.789A.789.789,0,0,1,6.36,43.835Zm3.354,0a.789.789,0,1,1,.789-.789A.789.789,0,0,1,9.713,43.835Z" transform="translate(0)" fill="#1e5975"/>
    <path id="Path_1435" data-name="Path 1435" d="M0,176.808v12.675A1.817,1.817,0,0,0,1.817,191.3H23.361a1.817,1.817,0,0,0,1.817-1.817V176.808Zm8.3,5.852-1.026,2.985a.784.784,0,0,1-.728.529H6.531a.784.784,0,0,1-.732-.5l-.371-.969-.324.943a.784.784,0,0,1-.728.529H4.362a.784.784,0,0,1-.732-.5l-1.142-2.985a.784.784,0,0,1,1.464-.56l.371.969.324-.943a.787.787,0,0,1,1.473-.025l.371.969.324-.943a.784.784,0,0,1,1.483.51Zm7.2,0-1.026,2.985a.784.784,0,0,1-.728.529h-.014a.784.784,0,0,1-.732-.5l-.371-.969-.324.943a.784.784,0,0,1-.728.529h-.014a.784.784,0,0,1-.732-.5l-1.142-2.985a.784.784,0,0,1,1.464-.56l.371.969.324-.943a.792.792,0,0,1,1.473-.025l.371.969.324-.943a.784.784,0,0,1,1.483.51Zm7.2,0-1.026,2.985a.784.784,0,0,1-.728.529h-.014a.784.784,0,0,1-.732-.5l-.371-.969-.324.943a.784.784,0,0,1-.728.529h-.014a.784.784,0,0,1-.732-.5l-1.142-2.985a.784.784,0,0,1,1.464-.56l.371.969.324-.943a.786.786,0,0,1,1.473-.025l.371.969.324-.943a.784.784,0,0,1,1.483.51Z" transform="translate(0 -129.62)" fill="#1e5975"/>
  </g>
</svg>
