<svg xmlns="http://www.w3.org/2000/svg" width="19.533" height="23.512" viewBox="0 0 19.533 23.512">
  <g id="heading_contacts" transform="translate(-37.4)">
    <path id="Path_1433" data-name="Path 1433" d="M41.017,11.756a.9.9,0,0,1-.9.9H38.3a.9.9,0,0,1-.9-.9h0a.9.9,0,0,1,.9-.9h1.809a.9.9,0,0,1,.9.9Zm0-5.787a.9.9,0,0,0-.9-.9H38.3a.9.9,0,0,0-.9.9h0a.9.9,0,0,0,.9.9h1.809a.9.9,0,0,0,.9-.9Zm0,11.575a.9.9,0,0,0-.9-.9H38.3a.9.9,0,0,0-.9.9h0a.9.9,0,0,0,.9.9h1.809a.9.9,0,0,0,.9-.9ZM56.933,2.894V20.618a2.894,2.894,0,0,1-2.894,2.894H41.379a2.894,2.894,0,0,1-2.894-2.894V19.171h1.628a1.628,1.628,0,0,0,0-3.256H38.485V13.383h1.628a1.628,1.628,0,1,0,0-3.255H38.485V7.6h1.628a1.628,1.628,0,1,0,0-3.255H38.485V2.894A2.894,2.894,0,0,1,41.379,0h12.66A2.894,2.894,0,0,1,56.933,2.894ZM45.461,8.578a2.79,2.79,0,1,0,2.79-2.79A2.79,2.79,0,0,0,45.461,8.578ZM52.592,15.4a3.1,3.1,0,0,0-3.1-3.1h-2.48a3.1,3.1,0,0,0-3.1,3.1v1.24h8.681Z" fill="#1e5975"/>
  </g>
</svg>
