<svg xmlns="http://www.w3.org/2000/svg" width="25.178" height="23.08" viewBox="0 0 25.178 23.08">
  <g id="heading_Basic_info" transform="translate(0 -21.167)">
    <path id="Path_1434" data-name="Path 1434" d="M23.342,21.167H1.836A1.838,1.838,0,0,0,0,23v2.623a1.838,1.838,0,0,0,1.836,1.836H23.342a1.838,1.838,0,0,0,1.836-1.836V23A1.838,1.838,0,0,0,23.342,21.167Z" transform="translate(0)" fill="#1e5975"/>
    <path id="Path_1435" data-name="Path 1435" d="M.787,202.657H7.606a.787.787,0,0,0,0-1.574H.787a.787.787,0,0,0,0,1.574Z" transform="translate(0 -170.999)" fill="#1e5975"/>
    <path id="Path_1436" data-name="Path 1436" d="M.787,266.157H7.606a.787.787,0,0,0,0-1.574H.787a.787.787,0,0,0,0,1.574Z" transform="translate(0 -231.352)" fill="#1e5975"/>
    <path id="Path_1437" data-name="Path 1437" d="M.787,329.657H7.606a.787.787,0,0,0,0-1.574H.787a.787.787,0,0,0,0,1.574Z" transform="translate(0 -291.705)" fill="#1e5975"/>
    <path id="Path_1438" data-name="Path 1438" d="M.787,393.157H7.606a.787.787,0,0,0,0-1.574H.787a.787.787,0,0,0,0,1.574Z" transform="translate(0 -352.057)" fill="#1e5975"/>
    <path id="Path_1439" data-name="Path 1439" d="M.787,456.657H7.606a.787.787,0,0,0,0-1.574H.787a.787.787,0,0,0,0,1.574Z" transform="translate(0 -412.41)" fill="#1e5975"/>
    <path id="Path_1440" data-name="Path 1440" d="M224.517,201.083H213.5a1.845,1.845,0,0,0-1.836,1.836V213.41a1.845,1.845,0,0,0,1.836,1.836h11.015a1.845,1.845,0,0,0,1.836-1.836V202.919A1.845,1.845,0,0,0,224.517,201.083Zm-5.508,3.672a1.574,1.574,0,1,1-1.574,1.574A1.572,1.572,0,0,1,219.01,204.755Zm3.147,6.557a.793.793,0,0,1-.787.787h-4.721a.793.793,0,0,1-.787-.787v-.388a2.1,2.1,0,0,1,2.2-1.972h1.888a2.1,2.1,0,0,1,2.2,1.972Z" transform="translate(-201.175 -170.999)" fill="#1e5975"/>
  </g>
</svg>
