<svg xmlns="http://www.w3.org/2000/svg" width="25.178" height="20.654" viewBox="0 0 25.178 20.654">
  <g id="heading_ucl_email" transform="translate(0 -64)">
    <g id="Group_25" data-name="Group 25" transform="translate(0 64)">
      <g id="Group_24" data-name="Group 24">
        <path id="Path_28" data-name="Path 28" d="M7.1,65.676c3.447,3.2,9.494,8.832,11.272,10.588a.988.988,0,0,0,1.519,0c1.779-1.758,7.827-7.39,11.273-10.591a.613.613,0,0,0,.074-.792A2.018,2.018,0,0,0,29.594,64H8.667a2.018,2.018,0,0,0-1.642.884A.612.612,0,0,0,7.1,65.676Z" transform="translate(-6.542 -64)" fill="#1e5975"/>
        <path id="Path_29" data-name="Path 29" d="M24.873,126.465a.487.487,0,0,0-.559.083c-3.832,3.553-8.723,8.108-10.262,9.625a1.994,1.994,0,0,1-2.928,0c-1.64-1.616-7.132-6.723-10.261-9.623a.489.489,0,0,0-.559-.083.58.58,0,0,0-.3.521v14.428a2.205,2.205,0,0,0,2.1,2.295H23.08a2.205,2.205,0,0,0,2.1-2.295V126.986A.579.579,0,0,0,24.873,126.465Z" transform="translate(0 -123.055)" fill="#1e5975"/>
      </g>
    </g>
  </g>
</svg>
