<svg xmlns="http://www.w3.org/2000/svg" width="27.055" height="24" viewBox="0 0 27.055 24">
  <g id="history" transform="translate(-1.708 -2.997)">
    <path id="Path_1480" data-name="Path 1480" d="M17.108,3A12.01,12.01,0,0,0,4.763,15H2.377a.66.66,0,0,0-.467,1.133L5.63,19.865a.66.66,0,0,0,.946,0L10.3,16.132A.666.666,0,0,0,9.816,15H7.429a9.329,9.329,0,0,1,9.465-9.332,9.45,9.45,0,0,1,9.2,9.2,9.337,9.337,0,0,1-9.332,9.465,9.192,9.192,0,0,1-5.706-1.973A1.334,1.334,0,0,0,9.4,24.45,11.808,11.808,0,0,0,16.761,27a12.01,12.01,0,0,0,12-12.344A12.139,12.139,0,0,0,17.108,3Zm-.68,6.665a1.007,1.007,0,0,0-1,1v4.906a1.349,1.349,0,0,0,.653,1.146l4.159,2.466a1,1,0,1,0,1.026-1.72l-3.839-2.28V10.653a1,1,0,0,0-1-.986Z" transform="translate(0)" fill="#1e5975"/>
  </g>
</svg>
