<svg id="hours_of_operation" data-name="hours of operation" xmlns="http://www.w3.org/2000/svg" width="20.059" height="20.059" viewBox="0 0 20.059 20.059">
  <path id="Path_1468" data-name="Path 1468" d="M91.371,86.275a.588.588,0,0,1,.588-.588H93.2a6.957,6.957,0,0,0-6.333-6.333v1.238a.588.588,0,1,1-1.175,0V79.355a6.957,6.957,0,0,0-6.333,6.333h1.237a.588.588,0,0,1,0,1.175H79.355A6.957,6.957,0,0,0,85.688,93.2V91.958a.588.588,0,0,1,1.175,0V93.2A6.957,6.957,0,0,0,93.2,86.863H91.958A.588.588,0,0,1,91.371,86.275Zm-1.546-2.806L86.7,86.685a.588.588,0,0,1-.808.033l-2.335-2.041a.588.588,0,0,1,.774-.885l1.915,1.674,2.739-2.816a.588.588,0,1,1,.842.819Z" transform="translate(-76.246 -76.246)" fill="#686868"/>
  <path id="Path_1469" data-name="Path 1469" d="M10.029,0A10.029,10.029,0,1,0,20.059,10.029,10.041,10.041,0,0,0,10.029,0Zm0,18.15a8.121,8.121,0,1,1,8.121-8.121A8.13,8.13,0,0,1,10.029,18.15Z" fill="#686868"/>
</svg>
