<svg id="hours_of_operation2" data-name="hours of operation2" xmlns="http://www.w3.org/2000/svg" width="23.511" height="23.511" viewBox="0 0 23.511 23.511">
  <path id="Path_1468" data-name="Path 1468" d="M93.439,87.467a.689.689,0,0,1,.689-.689h1.45a8.154,8.154,0,0,0-7.423-7.423v1.451a.689.689,0,1,1-1.378,0V79.355a8.154,8.154,0,0,0-7.423,7.423h1.45a.689.689,0,0,1,0,1.378h-1.45a8.154,8.154,0,0,0,7.423,7.423V94.128a.689.689,0,0,1,1.378,0v1.451a8.154,8.154,0,0,0,7.423-7.423h-1.45A.689.689,0,0,1,93.439,87.467Zm-1.812-3.289L87.96,87.947a.689.689,0,0,1-.947.038l-2.737-2.392a.689.689,0,0,1,.907-1.037l2.245,1.963,3.211-3.3a.689.689,0,1,1,.987.961Z" transform="translate(-75.711 -75.711)" fill="#253746"/>
  <path id="Path_1469" data-name="Path 1469" d="M11.756,0A11.756,11.756,0,1,0,23.511,11.756,11.769,11.769,0,0,0,11.756,0Zm0,21.274a9.519,9.519,0,1,1,9.519-9.519A9.529,9.529,0,0,1,11.756,21.274Z" fill="#253746"/>
</svg>
