<svg id="inventory_icon" xmlns="http://www.w3.org/2000/svg" width="11.208" height="11.208" viewBox="0 0 11.208 11.208">
  <path id="Path_1277" data-name="Path 1277" d="M5.137,13.35a.351.351,0,0,0-.35-.35H3.035v1.4a.467.467,0,1,1-.934,0V13H.35a.351.351,0,0,0-.35.35v4.436a.351.351,0,0,0,.35.35H4.787a.351.351,0,0,0,.35-.35Z" transform="translate(0 -6.929)" fill="#898889"/>
  <path id="Path_1278" data-name="Path 1278" d="M18.137,13.35a.351.351,0,0,0-.35-.35H16.035v1.4a.467.467,0,1,1-.934,0V13H13.35a.351.351,0,0,0-.35.35v4.436a.351.351,0,0,0,.35.35h4.436a.351.351,0,0,0,.35-.35Z" transform="translate(-6.929 -6.929)" fill="#898889"/>
  <path id="Path_1279" data-name="Path 1279" d="M11.637.35a.352.352,0,0,0-.35-.35H9.535V1.4a.467.467,0,0,1-.934,0V0H6.85A.351.351,0,0,0,6.5.35V4.787a.351.351,0,0,0,.35.35h4.436a.351.351,0,0,0,.35-.35Z" transform="translate(-3.465)" fill="#898889"/>
</svg>
