<svg xmlns="http://www.w3.org/2000/svg" width="15.945" height="15.944" viewBox="0 0 15.945 15.944"><path d="M7.308,13.5a.5.5,0,0,0-.5-.5H4.318v1.992a.664.664,0,1,1-1.329,0V13H.5a.5.5,0,0,0-.5.5v6.311a.5.5,0,0,0,.5.5H6.81a.5.5,0,0,0,.5-.5Z" transform="translate(0 -4.363)" fill="#898889"/><path d="M20.308,13.5a.5.5,0,0,0-.5-.5H17.318v1.992a.664.664,0,1,1-1.329,0V13H13.5a.5.5,0,0,0-.5.5v6.311a.5.5,0,0,0,.5.5h6.311a.5.5,0,0,0,.5-.5Z" transform="translate(-4.363 -4.363)" fill="#898889"/><path d="M13.808.5a.5.5,0,0,0-.5-.5H10.818V1.992a.664.664,0,1,1-1.329,0V0H7a.5.5,0,0,0-.5.5V6.81a.5.5,0,0,0,.5.5h6.311a.5.5,0,0,0,.5-.5Z" transform="translate(-2.182)" fill="#898889"/></svg>