<svg xmlns="http://www.w3.org/2000/svg" width="10.87" height="10.909" viewBox="0 0 10.87 10.909">
  <g id="lease_icon" transform="translate(0 0)">
    <g id="Group_811" data-name="Group 811">
      <path id="Path_257" data-name="Path 257" d="M10.725,8.862a.765.765,0,0,0-.617-.647,17.53,17.53,0,0,1-2.692-.96L7.3,6.744,7.062,6.7V5.948l.066-.067a1.047,1.047,0,0,0,.294-.631c.013-.131.027-.267.042-.407a.215.215,0,0,0,.282.024.621.621,0,0,0,.124-.236A4.68,4.68,0,0,0,8.043,3.48a.255.255,0,0,0-.3-.262,7.427,7.427,0,0,0,.011-2.173A1.256,1.256,0,0,0,6.989.75L6.7.272A3.329,3.329,0,0,0,3.156.9a6.908,6.908,0,0,0-.022,2.321.255.255,0,0,0-.306.262A4.676,4.676,0,0,0,3,4.632a.623.623,0,0,0,.124.236.215.215,0,0,0,.282-.024c.015.14.029.277.042.408a1.047,1.047,0,0,0,.293.63l.066.067V6.7l-.24.041-.116.518a15.7,15.7,0,0,1-2.688.955.766.766,0,0,0-.623.652A15.047,15.047,0,0,0,0,10.909H10.87a15.031,15.031,0,0,0-.145-2.048" transform="translate(0 0)" fill="#898889"/>
    </g>
  </g>
</svg>
