<svg xmlns="http://www.w3.org/2000/svg" width="8.538" height="11.208" viewBox="0 0 8.538 11.208">
  <g id="lifetime_icon" transform="translate(-60.983 0)">
    <g id="Group_813" data-name="Group 813" transform="translate(60.983 3.327)">
      <g id="Group_812" data-name="Group 812" transform="translate(0)">
        <path id="Path_259" data-name="Path 259" d="M65.252,151.969c-2.4,0-4.269,2.648-4.269,4.926,0,2.649,2.437,2.955,4.269,2.955s4.269-.306,4.269-2.955C69.521,154.617,67.656,151.969,65.252,151.969Zm.337,5.523-.009,0v.386a.328.328,0,0,1-.657,0v-.388a1.35,1.35,0,0,1-.6-.423.328.328,0,0,1,.5-.423c.647.773,1.085-.408.427-.408a.986.986,0,0,1-.985-.985.961.961,0,0,1,.657-.921v-.392a.328.328,0,0,1,.657,0v.393a1.265,1.265,0,0,1,.484.291.328.328,0,0,1-.457.472c-.6-.584-1.012.485-.355.485a.985.985,0,0,1,.337,1.911Z" transform="translate(-60.983 -151.969)" fill="#898889"/>
      </g>
    </g>
    <g id="Group_815" data-name="Group 815" transform="translate(63.143 0)">
      <g id="Group_814" data-name="Group 814" transform="translate(0)">
        <path id="Path_260" data-name="Path 260" d="M163.616.265a6.761,6.761,0,0,0-3.746,0,.328.328,0,0,0-.191.482l.5.889a4.567,4.567,0,0,1,3.134,0l.5-.889A.328.328,0,0,0,163.616.265Z" transform="translate(-159.634 0)" fill="#898889"/>
      </g>
    </g>
    <g id="Group_817" data-name="Group 817" transform="translate(63.308 2.02)">
      <g id="Group_816" data-name="Group 816" transform="translate(0)">
        <path id="Path_261" data-name="Path 261" d="M170.669,92.608a3.674,3.674,0,0,0-3.053,0,.974.974,0,0,0-.415.811,4.376,4.376,0,0,1,1.944-.495,4.128,4.128,0,0,1,1.944.495A.974.974,0,0,0,170.669,92.608Z" transform="translate(-167.2 -92.276)" fill="#898889"/>
      </g>
    </g>
  </g>
</svg>
