<svg xmlns="http://www.w3.org/2000/svg" width="30.984" height="28.934" viewBox="0 0 30.984 28.934">
  <g id="menu_settings_icon" transform="translate(0.424 0.477)">
    <g id="Group_806" data-name="Group 806" transform="translate(-5.582 -6.285)">
      <path id="Path_256" data-name="Path 256" d="M30.859,12.525a2.536,2.536,0,0,0-3.389-2.05,1.268,1.268,0,0,1-1.549-.7,11.473,11.473,0,0,0-1.15-2,1.236,1.236,0,0,1,.173-1.7,2.482,2.482,0,0,0,.91-1.978,2.53,2.53,0,0,0-1.01-1.975A15.521,15.521,0,0,0,21.5.2a2.568,2.568,0,0,0-1-.2,2.5,2.5,0,0,0-2.481,2.09,1.238,1.238,0,0,1-1.388,1,10.961,10.961,0,0,0-2.292,0,1.239,1.239,0,0,1-1.388-1A2.5,2.5,0,0,0,10.476,0a2.558,2.558,0,0,0-1,.2A15.443,15.443,0,0,0,6.139,2.131,2.532,2.532,0,0,0,5.13,4.105a2.488,2.488,0,0,0,.91,1.98,1.233,1.233,0,0,1,.173,1.693,11.479,11.479,0,0,0-1.152,2,1.233,1.233,0,0,1-1.563.691A2.51,2.51,0,0,0,.124,12.525,15.472,15.472,0,0,0,0,14.467a15.247,15.247,0,0,0,.125,1.942,2.536,2.536,0,0,0,3.389,2.05,1.269,1.269,0,0,1,1.549.7,11.472,11.472,0,0,0,1.15,2,1.236,1.236,0,0,1-.173,1.7,2.482,2.482,0,0,0-.91,1.978A2.53,2.53,0,0,0,6.14,26.8a15.521,15.521,0,0,0,3.34,1.929,2.568,2.568,0,0,0,1,.2,2.5,2.5,0,0,0,2.481-2.09,1.243,1.243,0,0,1,1.388-1,10.962,10.962,0,0,0,2.292,0,1.242,1.242,0,0,1,1.388,1,2.5,2.5,0,0,0,2.481,2.09,2.558,2.558,0,0,0,1-.2,15.434,15.434,0,0,0,3.34-1.929,2.533,2.533,0,0,0,1.01-1.974,2.488,2.488,0,0,0-.91-1.98,1.233,1.233,0,0,1-.173-1.693,11.479,11.479,0,0,0,1.152-2,1.233,1.233,0,0,1,1.563-.691,2.482,2.482,0,0,0,.879.161,2.534,2.534,0,0,0,2.5-2.217,15.634,15.634,0,0,0,.124-1.943A15.369,15.369,0,0,0,30.859,12.525ZM15.492,19.631a5.164,5.164,0,1,1,5.164-5.164A5.169,5.169,0,0,1,15.492,19.631Z" transform="translate(5.158 5.808)" fill="#898889"/>
    </g>
  </g>
</svg>
