<svg xmlns="http://www.w3.org/2000/svg" width="10.364" height="13.818" viewBox="0 0 10.364 13.818">
  <g id="lock" transform="translate(-64)">
    <g id="Group_844" data-name="Group 844" transform="translate(64)">
      <path id="Path_294" data-name="Path 294" d="M74.076,5.182h-.864V4.03a4.03,4.03,0,1,0-8.061,0V5.182h-.864A.288.288,0,0,0,64,5.47v7.2a1.153,1.153,0,0,0,1.152,1.152h8.061a1.153,1.153,0,0,0,1.152-1.152V5.47A.288.288,0,0,0,74.076,5.182ZM70.044,11.2a.288.288,0,0,1-.286.32H68.606a.288.288,0,0,1-.286-.32L68.5,9.563a1.139,1.139,0,0,1-.471-.926,1.152,1.152,0,0,1,2.3,0,1.139,1.139,0,0,1-.471.926Zm1.441-6.014H66.879V4.03a2.3,2.3,0,1,1,4.606,0Z" transform="translate(-64)" fill="#898889"/>
    </g>
  </g>
</svg>
