<svg xmlns="http://www.w3.org/2000/svg" width="26.182" height="24" viewBox="0 0 26.182 24">
  <g id="personal_icon" transform="translate(0 -21.167)">
    <path id="Path_262" data-name="Path 262" d="M346.576,201.083h-7.091a.818.818,0,1,0,0,1.636h7.091a.818.818,0,1,0,0-1.636Z" transform="translate(-321.212 -170.643)" fill="#004a6d"/>
    <path id="Path_263" data-name="Path 263" d="M346.576,264.583h-7.091a.818.818,0,0,0,0,1.636h7.091a.818.818,0,0,0,0-1.636Z" transform="translate(-321.212 -230.871)" fill="#004a6d"/>
    <path id="Path_264" data-name="Path 264" d="M346.576,328.083h-7.091a.818.818,0,0,0,0,1.636h7.091a.818.818,0,1,0,0-1.636Z" transform="translate(-321.212 -291.098)" fill="#004a6d"/>
    <path id="Path_265" data-name="Path 265" d="M346.576,391.583h-7.091a.818.818,0,0,0,0,1.636h7.091a.818.818,0,0,0,0-1.636Z" transform="translate(-321.212 -351.325)" fill="#004a6d"/>
    <path id="Path_266" data-name="Path 266" d="M346.576,455.083h-7.091a.818.818,0,0,0,0,1.636h7.091a.818.818,0,0,0,0-1.636Z" transform="translate(-321.212 -411.552)" fill="#004a6d"/>
    <path id="Path_267" data-name="Path 267" d="M13.364,201.083H1.909A1.918,1.918,0,0,0,0,202.992V213.9a1.918,1.918,0,0,0,1.909,1.909H13.364a1.918,1.918,0,0,0,1.909-1.909V202.992A1.918,1.918,0,0,0,13.364,201.083ZM7.636,204.9A1.636,1.636,0,1,1,6,206.538,1.634,1.634,0,0,1,7.636,204.9Zm3.273,6.818a.824.824,0,0,1-.818.818H5.182a.824.824,0,0,1-.818-.818v-.4a2.18,2.18,0,0,1,2.291-2.051H8.618a2.18,2.18,0,0,1,2.291,2.051Z" transform="translate(0 -170.643)" fill="#004a6d"/>
    <path id="Path_268" data-name="Path 268" d="M24.273,21.167H1.909A1.911,1.911,0,0,0,0,23.076V25.8a1.911,1.911,0,0,0,1.909,1.909H24.273A1.911,1.911,0,0,0,26.182,25.8V23.076A1.911,1.911,0,0,0,24.273,21.167Z" transform="translate(0)" fill="#004a6d"/>
  </g>
</svg>
