<svg xmlns="http://www.w3.org/2000/svg" width="11.901" height="10.909" viewBox="0 0 11.901 10.909">
  <g id="phone" transform="translate(-0.001 -23.333)">
    <g id="Group_27" data-name="Group 27" transform="translate(0 23.333)">
      <g id="Group_26" data-name="Group 26">
        <path id="Path_30" data-name="Path 30" d="M11.7,23.836a7.851,7.851,0,0,0-11.5,0,.757.757,0,0,0,0,1.031l1.143,1.2a.713.713,0,0,0,1.014,0,5.024,5.024,0,0,1,1.29-.984.722.722,0,0,0,.388-.622l.172-1.3a5.145,5.145,0,0,1,3.48,0l.17,1.271a.745.745,0,0,0,.384.657,5.039,5.039,0,0,1,1.293.985.7.7,0,0,0,1.014,0L11.7,24.867A.757.757,0,0,0,11.7,23.836Z" transform="translate(0 -21.333)" fill="#898889"/>
        <path id="Path_31" data-name="Path 31" d="M50.852,192.656A1.238,1.238,0,0,0,49.758,192H45.494a1.238,1.238,0,0,0-1.094.656l-1.587,2.975a1.245,1.245,0,0,0-.146.583v1.736a.993.993,0,0,0,.992.992h7.934a.993.993,0,0,0,.992-.992v-1.736a1.247,1.247,0,0,0-.146-.583Zm-4.714,4.8a.5.5,0,1,1,.5-.5A.5.5,0,0,1,46.138,197.454Zm0-1.488a.5.5,0,1,1,.5-.5A.5.5,0,0,1,46.138,195.967Zm0-1.488a.5.5,0,1,1,.5-.5A.5.5,0,0,1,46.138,194.479Zm1.488,2.975a.5.5,0,1,1,.5-.5A.5.5,0,0,1,47.626,197.454Zm0-1.488a.5.5,0,1,1,.5-.5A.5.5,0,0,1,47.626,195.967Zm0-1.488a.5.5,0,1,1,.5-.5A.5.5,0,0,1,47.626,194.479Zm1.487,2.975a.5.5,0,1,1,.5-.5A.5.5,0,0,1,49.113,197.454Zm0-1.488a.5.5,0,1,1,.5-.5A.5.5,0,0,1,49.113,195.967Zm0-1.488a.5.5,0,1,1,.5-.5A.5.5,0,0,1,49.113,194.479Z" transform="translate(-41.675 -188.033)" fill="#898889"/>
      </g>
    </g>
  </g>
</svg>
