<svg id="phone-icon" xmlns="http://www.w3.org/2000/svg" width="13.324" height="12.214" viewBox="0 0 13.324 12.214">
  <path id="Path_30" data-name="Path 30" d="M13.1,24.135a8.79,8.79,0,0,0-12.87,0,.847.847,0,0,0,0,1.154l1.28,1.346a.8.8,0,0,0,1.135,0,5.625,5.625,0,0,1,1.445-1.1.808.808,0,0,0,.434-.7l.193-1.459a5.761,5.761,0,0,1,3.9,0L8.8,24.8a.834.834,0,0,0,.43.735,5.642,5.642,0,0,1,1.447,1.1.779.779,0,0,0,1.135,0L13.1,25.29A.847.847,0,0,0,13.1,24.135Z" transform="translate(0 -21.333)" fill="#1e5975"/>
  <path id="Path_31" data-name="Path 31" d="M51.831,192.735A1.386,1.386,0,0,0,50.606,192H45.832a1.386,1.386,0,0,0-1.225.735l-1.777,3.331a1.394,1.394,0,0,0-.163.653v1.943a1.112,1.112,0,0,0,1.11,1.11H52.66a1.112,1.112,0,0,0,1.11-1.11v-1.943a1.4,1.4,0,0,0-.163-.653Zm-5.278,5.372a.555.555,0,1,1,.555-.555A.556.556,0,0,1,46.553,198.107Zm0-1.666a.555.555,0,1,1,.555-.555A.556.556,0,0,1,46.553,196.441Zm0-1.666a.555.555,0,1,1,.555-.555A.556.556,0,0,1,46.553,194.776Zm1.666,3.331a.555.555,0,1,1,.555-.555A.556.556,0,0,1,48.219,198.107Zm0-1.666a.555.555,0,1,1,.555-.555A.556.556,0,0,1,48.219,196.441Zm0-1.666a.555.555,0,1,1,.555-.555A.556.556,0,0,1,48.219,194.776Zm1.665,3.331a.555.555,0,1,1,.555-.555A.556.556,0,0,1,49.884,198.107Zm0-1.666a.555.555,0,1,1,.555-.555A.556.556,0,0,1,49.884,196.441Zm0-1.666a.555.555,0,1,1,.555-.555A.556.556,0,0,1,49.884,194.776Z" transform="translate(-41.557 -187.559)" fill="#1e5975"/>
</svg>
