<svg id="process" xmlns="http://www.w3.org/2000/svg" width="20.059" height="19.936" viewBox="0 0 20.059 19.936">
  <path id="Path_1428" data-name="Path 1428" d="M363.293,62.175v2.353a4.173,4.173,0,0,1,1.175,0V61.588a.588.588,0,0,0-.588-.588H360.94a4.177,4.177,0,0,1,0,1.175Z" transform="translate(-346.799 -58.61)" fill="#646464"/>
  <path id="Path_1429" data-name="Path 1429" d="M186.821,242.175a4.174,4.174,0,0,1,0-1.175H180.94a4.178,4.178,0,0,1,0,1.175Z" transform="translate(-173.851 -231.558)" fill="#646464"/>
  <path id="Path_1430" data-name="Path 1430" d="M366.6,378.473l-2.521-1.737a.588.588,0,0,0-.921.484v1.15H360.94a4.177,4.177,0,0,1,0,1.175h2.222v1.15a.588.588,0,0,0,.921.484l2.521-1.737A.588.588,0,0,0,366.6,378.473Z" transform="translate(-346.799 -361.876)" fill="#646464"/>
  <path id="Path_1431" data-name="Path 1431" d="M62.175,363.293V360.94a4.186,4.186,0,0,1-1.175,0v2.941a.588.588,0,0,0,.588.588h2.941a4.177,4.177,0,0,1,0-1.175Z" transform="translate(-58.61 -346.799)" fill="#646464"/>
  <path id="Path_1432" data-name="Path 1432" d="M39.815,0a2.981,2.981,0,0,0-2.973,2.818.58.58,0,0,0-.231-.325L34.089.756a.588.588,0,0,0-.921.484V2.39H31.588a.588.588,0,0,0,0,1.175h1.581v1.15a.588.588,0,0,0,.921.484L36.61,3.461a.58.58,0,0,0,.231-.325A2.977,2.977,0,1,0,39.815,0Z" transform="translate(-29.785)" fill="#646464"/>
  <ellipse id="Ellipse_24" data-name="Ellipse 24" cx="2.623" cy="3.148" rx="2.623" ry="3.148" transform="translate(7.345 13.64)" fill="#646464"/>
  <ellipse id="Ellipse_25" data-name="Ellipse 25" cx="3.148" cy="2.623" rx="3.148" ry="2.623" transform="translate(13.64 7.345)" fill="#646464"/>
  <ellipse id="Ellipse_26" data-name="Ellipse 26" cx="3.148" cy="2.623" rx="3.148" ry="2.623" transform="translate(0 7.345)" fill="#646464"/>
</svg>
