<svg xmlns="http://www.w3.org/2000/svg" width="38.587" height="23.328" viewBox="0 0 38.587 23.328">
  <g id="Group_2770" data-name="Group 2770" transform="translate(-1241.671 -230.611)">
    <path id="Path_5" data-name="Path 5" d="M0,53.333l3.912,3.912,3.912-3.912Z" transform="translate(1272.433 186.667)" fill="#fff"/>
    <path id="Path_256" data-name="Path 256" d="M17.753,7.206A1.459,1.459,0,0,0,15.8,6.026a.73.73,0,0,1-.891-.4,6.6,6.6,0,0,0-.662-1.15.711.711,0,0,1,.1-.975,1.428,1.428,0,0,0,.524-1.138,1.455,1.455,0,0,0-.581-1.136A8.929,8.929,0,0,0,12.371.117,1.477,1.477,0,0,0,11.8,0,1.439,1.439,0,0,0,10.37,1.2a.712.712,0,0,1-.8.573,6.306,6.306,0,0,0-1.318,0,.713.713,0,0,1-.8-.573A1.439,1.439,0,0,0,6.027,0a1.471,1.471,0,0,0-.573.117,8.884,8.884,0,0,0-1.922,1.11,1.456,1.456,0,0,0-.58,1.136A1.432,1.432,0,0,0,3.475,3.5a.709.709,0,0,1,.1.974,6.6,6.6,0,0,0-.662,1.15.709.709,0,0,1-.9.4A1.444,1.444,0,0,0,.071,7.206,8.9,8.9,0,0,0,0,8.323,8.771,8.771,0,0,0,.072,9.44a1.459,1.459,0,0,0,1.95,1.179.73.73,0,0,1,.891.4,6.6,6.6,0,0,0,.662,1.15.711.711,0,0,1-.1.975,1.428,1.428,0,0,0-.524,1.138,1.455,1.455,0,0,0,.581,1.136,8.929,8.929,0,0,0,1.921,1.11,1.477,1.477,0,0,0,.574.117,1.439,1.439,0,0,0,1.428-1.2.715.715,0,0,1,.8-.573,6.306,6.306,0,0,0,1.318,0,.714.714,0,0,1,.8.573,1.439,1.439,0,0,0,1.428,1.2,1.471,1.471,0,0,0,.573-.117,8.879,8.879,0,0,0,1.921-1.11,1.457,1.457,0,0,0,.581-1.136,1.432,1.432,0,0,0-.524-1.139.709.709,0,0,1-.1-.974,6.6,6.6,0,0,0,.662-1.15.709.709,0,0,1,.9-.4,1.428,1.428,0,0,0,.506.093,1.458,1.458,0,0,0,1.436-1.275,8.994,8.994,0,0,0,.071-1.118A8.842,8.842,0,0,0,17.753,7.206ZM8.913,11.294a2.971,2.971,0,1,1,2.971-2.971A2.974,2.974,0,0,1,8.913,11.294Z" transform="translate(1241.671 239.523) rotate(-30)" fill="#fff"/>
  </g>
</svg>
