<svg xmlns="http://www.w3.org/2000/svg" width="13" height="7.486" viewBox="0 0 13 7.486">
  <g id="Group_2902" data-name="Group 2902" transform="translate(-79 -821)">
    <path id="Path_1482" data-name="Path 1482" d="M5.871,7.743A1.871,1.871,0,1,0,4,5.871,1.871,1.871,0,0,0,5.871,7.743Z" transform="translate(76.871 817)" fill="#898889"/>
    <path id="Path_1483" data-name="Path 1483" d="M3.743,13C2.494,13,0,13.627,0,14.871v1.4H7.486v-1.4C7.486,13.627,4.992,13,3.743,13Z" transform="translate(79 812.211)" fill="#898889"/>
    <path id="Path_1484" data-name="Path 1484" d="M12.51,4.05a2.8,2.8,0,0,1,0,3.7,1.862,1.862,0,0,0,0-3.7Z" transform="translate(72.343 816.973)" fill="#898889"/>
    <path id="Path_1485" data-name="Path 1485" d="M16.53,13.83a1.982,1.982,0,0,1,.688,1.483v1.4h.936v-1.4C18.153,14.635,17.41,14.139,16.53,13.83Z" transform="translate(70.204 811.769)" fill="#898889"/>
    <path id="Path_1488" data-name="Path 1488" d="M3.821,4.781l1.126.679-.3-1.28.994-.862-1.31-.111L3.821,2,3.31,3.208,2,3.319l.994.862-.3,1.28Z" transform="translate(86.357 819)" fill="#898889"/>
  </g>
</svg>
