<svg id="recent_icon" xmlns="http://www.w3.org/2000/svg" width="11.313" height="11.313" viewBox="0 0 11.313 11.313">
  <path id="Path_1422" data-name="Path 1422" d="M5.657,0A5.657,5.657,0,1,0,8.475,10.557l-.333-.574a4.96,4.96,0,0,1-2.485.667,4.988,4.988,0,1,1,4.331-2.5V7.336H9.325V9.325h1.989V8.662h-.862A5.659,5.659,0,0,0,5.657,0Zm0,0" fill="#898889"/>
  <path id="Path_1423" data-name="Path 1423" d="M93.668,90a3.668,3.668,0,1,0,3.668,3.668A3.688,3.688,0,0,0,93.668,90Zm2.32,4H93.337V91.326H94v2.011h1.989Zm0,0" transform="translate(-88.011 -88.011)" fill="#898889"/>
</svg>
