<svg xmlns="http://www.w3.org/2000/svg" width="12.998" height="9.099" viewBox="0 0 12.998 9.099">
  <path id="team" d="M1.95,35.9a1.3,1.3,0,1,0-1.3-1.3A1.3,1.3,0,0,0,1.95,35.9Zm9.1,0a1.3,1.3,0,1,0-1.3-1.3A1.3,1.3,0,0,0,11.048,35.9Zm.65.65H10.4a1.3,1.3,0,0,0-.916.378,2.971,2.971,0,0,1,1.525,2.222h1.34A.649.649,0,0,0,13,38.5v-.65A1.3,1.3,0,0,0,11.7,36.549Zm-5.2,0a2.275,2.275,0,1,0-2.275-2.275A2.274,2.274,0,0,0,6.5,36.549Zm1.56.65H7.89a3.141,3.141,0,0,1-2.782,0H4.939a2.34,2.34,0,0,0-2.34,2.34v.585a.975.975,0,0,0,.975.975H9.424a.975.975,0,0,0,.975-.975v-.585A2.34,2.34,0,0,0,8.059,37.2Zm-4.543-.272a1.3,1.3,0,0,0-.916-.378H1.3a1.3,1.3,0,0,0-1.3,1.3v.65a.649.649,0,0,0,.65.65H1.988a2.978,2.978,0,0,1,1.527-2.222Z" transform="translate(0 -32)" fill="#898889"/>
</svg>
