<svg xmlns="http://www.w3.org/2000/svg" width="44.406" height="56.57" viewBox="0 0 44.406 56.57">
  <g id="uparrow" transform="translate(-1018 -797)">
    <path id="arrow-up-solid" d="M8.625,58.145,6.367,55.887a2.431,2.431,0,0,1,0-3.448L26.129,32.667a2.431,2.431,0,0,1,3.448,0L49.338,52.429a2.431,2.431,0,0,1,0,3.448l-2.258,2.258a2.444,2.444,0,0,1-3.489-.041L31.926,45.848V75.079a2.435,2.435,0,0,1-2.441,2.441H26.231a2.435,2.435,0,0,1-2.441-2.441V45.848L12.114,58.1A2.426,2.426,0,0,1,8.625,58.145Z" transform="translate(1012.35 776.05)"/>
    <rect id="Rectangle_1444" data-name="Rectangle 1444" width="8" height="44" rx="2" transform="translate(1062 797) rotate(90)"/>
  </g>
</svg>
