<svg xmlns="http://www.w3.org/2000/svg" width="20.16" height="16.538" viewBox="0 0 20.16 16.538">
  <g id="ucl_email" transform="translate(0 -64)">
    <g id="Group_25" data-name="Group 25" transform="translate(0 64)">
      <g id="Group_24" data-name="Group 24">
        <path id="Path_28" data-name="Path 28" d="M7.062,65.342c2.76,2.563,7.6,7.072,9.025,8.478a.791.791,0,0,0,1.216,0c1.424-1.407,6.267-5.917,9.027-8.48a.49.49,0,0,0,.059-.634A1.616,1.616,0,0,0,25.074,64H8.318A1.616,1.616,0,0,0,7,64.708.49.49,0,0,0,7.062,65.342Z" transform="translate(-6.616 -64)" fill="#686868"/>
        <path id="Path_29" data-name="Path 29" d="M19.917,126.454a.39.39,0,0,0-.448.066c-3.068,2.845-6.985,6.492-8.217,7.707a1.6,1.6,0,0,1-2.344,0c-1.313-1.294-5.711-5.384-8.216-7.706a.392.392,0,0,0-.448-.066.464.464,0,0,0-.244.417v11.553a1.766,1.766,0,0,0,1.68,1.838h16.8a1.766,1.766,0,0,0,1.68-1.838V126.871A.464.464,0,0,0,19.917,126.454Z" transform="translate(0 -123.724)" fill="#686868"/>
      </g>
    </g>
  </g>
</svg>
