<svg xmlns="http://www.w3.org/2000/svg" width="20.202" height="18.865" viewBox="0 0 20.202 18.865">
  <g id="ucl_site" transform="translate(0.424 0.477)">
    <g id="Group_806" data-name="Group 806" transform="translate(-0.424 -0.477)">
      <path id="Path_256" data-name="Path 256" d="M20.12,8.167a1.653,1.653,0,0,0-2.21-1.337.827.827,0,0,1-1.01-.454,7.481,7.481,0,0,0-.75-1.3.806.806,0,0,1,.113-1.105,1.618,1.618,0,0,0,.593-1.29A1.649,1.649,0,0,0,16.2,1.39,10.12,10.12,0,0,0,14.021.132,1.674,1.674,0,0,0,13.37,0a1.631,1.631,0,0,0-1.618,1.363.807.807,0,0,1-.9.649,7.147,7.147,0,0,0-1.494,0,.808.808,0,0,1-.9-.649A1.631,1.631,0,0,0,6.831,0a1.668,1.668,0,0,0-.65.132A10.069,10.069,0,0,0,4,1.39a1.651,1.651,0,0,0-.657,1.287,1.623,1.623,0,0,0,.593,1.291.8.8,0,0,1,.113,1.1,7.484,7.484,0,0,0-.751,1.3.8.8,0,0,1-1.019.45,1.636,1.636,0,0,0-2.2,1.341A10.088,10.088,0,0,0,0,9.433,9.941,9.941,0,0,0,.082,10.7a1.653,1.653,0,0,0,2.21,1.337.827.827,0,0,1,1.01.454,7.48,7.48,0,0,0,.75,1.3A.806.806,0,0,1,3.939,14.9a1.618,1.618,0,0,0-.593,1.29A1.649,1.649,0,0,0,4,17.476a10.12,10.12,0,0,0,2.178,1.258,1.674,1.674,0,0,0,.651.132A1.631,1.631,0,0,0,8.449,17.5a.811.811,0,0,1,.9-.649,7.147,7.147,0,0,0,1.494,0,.81.81,0,0,1,.9.649,1.631,1.631,0,0,0,1.618,1.363,1.668,1.668,0,0,0,.65-.132A10.063,10.063,0,0,0,16.2,17.476a1.652,1.652,0,0,0,.658-1.287,1.623,1.623,0,0,0-.593-1.291.8.8,0,0,1-.113-1.1,7.484,7.484,0,0,0,.751-1.3.8.8,0,0,1,1.019-.45,1.618,1.618,0,0,0,.573.105A1.652,1.652,0,0,0,20.121,10.7,10.194,10.194,0,0,0,20.2,9.433,10.021,10.021,0,0,0,20.12,8.167ZM10.1,12.8a3.367,3.367,0,1,1,3.367-3.367A3.37,3.37,0,0,1,10.1,12.8Z" transform="translate(0 0)" fill="#686868"/>
    </g>
  </g>
</svg>
