<svg xmlns="http://www.w3.org/2000/svg" width="14.96" height="16.67" viewBox="0 0 14.96 16.67">
  <path id="Path_255" data-name="Path 255" d="M2.992,6.412h.855V4.274a2.553,2.553,0,0,1,.2-1,4.465,4.465,0,0,0,3.219,1c1.837,0,3.331-.634,3.411-1.429a2.552,2.552,0,0,1,.436,1.429V6.412h.855a.427.427,0,0,0,.427-.427V3.42A3.42,3.42,0,0,0,8.976,0H5.984a3.42,3.42,0,0,0-3.42,3.42V5.984a.427.427,0,0,0,.427.427m8.62,5.129H9.87a.855.855,0,0,0-.719.393L8.22,13.382l.917,1.343a.428.428,0,0,1-.112.594l-.286.2a.427.427,0,0,1-.594-.112l-.683-1-.683,1a.427.427,0,0,1-.594.112l-.286-.2a.428.428,0,0,1-.112-.594l.936-1.372-.913-1.42a.855.855,0,0,0-.719-.393H3.348A3.348,3.348,0,0,0,0,14.889v1.567a.214.214,0,0,0,.214.214H14.747a.214.214,0,0,0,.214-.214V14.889a3.348,3.348,0,0,0-3.348-3.348" transform="translate(0 0)" fill="#495057"/>
</svg>
