<svg xmlns="http://www.w3.org/2000/svg" width="16.021" height="20.027" viewBox="0 0 16.021 20.027">
  <g id="Warranty_grey" data-name="Warranty grey" transform="translate(-4 -2)">
    <path id="Path_1471" data-name="Path 1471" d="M13.182,2H6A2.009,2.009,0,0,0,4,4V20.024a2.009,2.009,0,0,0,2,2H18.019a2.009,2.009,0,0,0,2-2V8.839a1.969,1.969,0,0,0-.591-1.412L14.594,2.591A1.969,1.969,0,0,0,13.182,2Zm2.834,13.017A4,4,0,0,1,11.62,19a4.121,4.121,0,0,1-3.615-4.156V9.65a2.6,2.6,0,0,1,2.243-2.634A2.5,2.5,0,0,1,13.012,9.51v4.506a1,1,0,0,1-1,1h0a1,1,0,0,1-1-1V9.51a.5.5,0,1,0-1,0v5.4A2.074,2.074,0,0,0,11.67,16.99a2,2,0,0,0,2.343-1.973v-3a1,1,0,0,1,1-1h0a1,1,0,0,1,1,1Zm-2-8.011V4l4.005,4.005h-3A1,1,0,0,1,14.013,7.007Z" transform="translate(0 0)" fill="#686868"/>
  </g>
</svg>
