<svg xmlns="http://www.w3.org/2000/svg" width="20" height="16.837" viewBox="0 0 20 16.837">
  <g id="website_icon" transform="translate(0 -40.484)">
    <path id="Path_1434" data-name="Path 1434" d="M18.557,40.484H1.443A1.444,1.444,0,0,0,0,41.927v2.636H20V41.927A1.443,1.443,0,0,0,18.557,40.484ZM2.5,43.146a.627.627,0,1,1,.627-.627A.627.627,0,0,1,2.5,43.146Zm2.548,0a.627.627,0,1,1,.627-.627A.627.627,0,0,1,5.052,43.146Zm2.664,0a.627.627,0,1,1,.627-.627A.627.627,0,0,1,7.716,43.146Z" transform="translate(0)" fill="#686868"/>
    <path id="Path_1435" data-name="Path 1435" d="M0,176.808v10.069a1.443,1.443,0,0,0,1.443,1.443H18.557A1.443,1.443,0,0,0,20,186.877V176.808Zm6.592,4.648-.815,2.371a.623.623,0,0,1-.578.42H5.188a.623.623,0,0,1-.581-.4l-.294-.77-.258.749a.623.623,0,0,1-.578.42H3.465a.623.623,0,0,1-.581-.4l-.907-2.371a.623.623,0,0,1,1.163-.445l.294.77.258-.749a.625.625,0,0,1,1.17-.02l.294.77.258-.749a.623.623,0,0,1,1.178.4Zm5.72,0-.815,2.371a.623.623,0,0,1-.578.42h-.011a.623.623,0,0,1-.581-.4l-.294-.77-.258.749a.623.623,0,0,1-.578.42H9.185a.623.623,0,0,1-.581-.4L7.7,181.477a.623.623,0,0,1,1.163-.445l.294.77.258-.749a.629.629,0,0,1,1.17-.02l.294.77.258-.749a.623.623,0,0,1,1.178.4Zm5.72,0-.815,2.371a.623.623,0,0,1-.578.42h-.011a.623.623,0,0,1-.581-.4l-.294-.77-.258.749a.623.623,0,0,1-.578.42H14.9a.623.623,0,0,1-.581-.4l-.907-2.371a.623.623,0,0,1,1.163-.445l.295.77.258-.749a.625.625,0,0,1,1.17-.02l.294.77.258-.749a.623.623,0,0,1,1.178.4Z" transform="translate(0 -130.999)" fill="#686868"/>
  </g>
</svg>
