<svg xmlns="http://www.w3.org/2000/svg" width="15.245" height="20" viewBox="0 0 15.245 20">
  <g id="admin_icon" transform="translate(-2.084)">
    <g id="Group_2859" data-name="Group 2859" transform="translate(2.084 0)">
      <circle id="Ellipse_23" data-name="Ellipse 23" cx="3.462" cy="3.462" r="3.462" transform="translate(4.349)" fill="#686868"/>
      <path id="Path_1377" data-name="Path 1377" d="M12.953,6.346H10.471c.22.212-.051.929-.232,1.326a2.844,2.844,0,0,0-1.067.015c-.177-.4-.459-1.126-.237-1.34H6.524c-4.6.083-4.438,3.462-4.438,3.462l0,7.889h0c0,.018,0,.038,0,.056a1.353,1.353,0,0,0,2.706,0c0-.018,0-.038,0-.056h0V10.4h.845l0,8.4,8.108.014,0-8.444h.88V17.7h0v.009a1.352,1.352,0,1,0,2.7,0v-7.9C17.029,6.292,12.953,6.346,12.953,6.346ZM9.731,15.4l-.889-1.112.448-5.865a2.546,2.546,0,0,1,.827-.011l.011.122.216,2.837.222,2.917Z" transform="translate(-2.084 0.894)" fill="#686868"/>
    </g>
  </g>
</svg>
