<svg xmlns="http://www.w3.org/2000/svg" width="19.778" height="20" viewBox="0 0 19.778 20">
  <g id="calendar_icon" transform="translate(-0.208)">
    <path id="Path_1402" data-name="Path 1402" d="M21.093,4.281a1.4,1.4,0,0,0,1.407-1.4V1.407a1.407,1.407,0,1,0-2.813,0v1.47A1.4,1.4,0,0,0,21.093,4.281Z" transform="translate(-6.082)" fill="#686868"/>
    <path id="Path_1403" data-name="Path 1403" d="M19.965,3.478h-2.8v.7a2.118,2.118,0,0,1-4.237,0v-.7H7.273v.7a2.119,2.119,0,0,1-4.238,0v-.7L.208,3.443v17.6H18.574l1.412,0ZM18.573,19.643H1.622V8.4H18.574V19.643Z" transform="translate(0 -1.045)" fill="#686868"/>
    <path id="Path_1404" data-name="Path 1404" d="M6.742,4.281a1.4,1.4,0,0,0,1.408-1.4V1.407a1.407,1.407,0,1,0-2.813,0v1.47A1.4,1.4,0,0,0,6.742,4.281Z" transform="translate(-1.601)" fill="#686868"/>
    <rect id="Rectangle_1393" data-name="Rectangle 1393" width="2.251" height="1.987" transform="translate(7.267 8.827)" fill="#686868"/>
    <rect id="Rectangle_1394" data-name="Rectangle 1394" width="2.253" height="1.987" transform="translate(10.862 8.827)" fill="#686868"/>
    <rect id="Rectangle_1395" data-name="Rectangle 1395" width="2.251" height="1.987" transform="translate(14.195 8.827)" fill="#686868"/>
    <rect id="Rectangle_1396" data-name="Rectangle 1396" width="2.251" height="1.985" transform="translate(7.267 12.075)" fill="#686868"/>
    <rect id="Rectangle_1397" data-name="Rectangle 1397" width="2.253" height="1.985" transform="translate(10.862 12.075)" fill="#686868"/>
    <rect id="Rectangle_1398" data-name="Rectangle 1398" width="2.251" height="1.985" transform="translate(14.195 12.075)" fill="#686868"/>
    <rect id="Rectangle_1399" data-name="Rectangle 1399" width="2.251" height="1.985" transform="translate(7.267 15.345)" fill="#686868"/>
    <rect id="Rectangle_1400" data-name="Rectangle 1400" width="2.249" height="1.985" transform="translate(3.736 12.075)" fill="#686868"/>
    <rect id="Rectangle_1401" data-name="Rectangle 1401" width="2.249" height="1.985" transform="translate(3.736 15.345)" fill="#686868"/>
    <rect id="Rectangle_1402" data-name="Rectangle 1402" width="2.253" height="1.985" transform="translate(10.862 15.345)" fill="#686868"/>
    <rect id="Rectangle_1403" data-name="Rectangle 1403" width="2.251" height="1.985" transform="translate(14.195 15.345)" fill="#686868"/>
  </g>
</svg>
