<svg xmlns="http://www.w3.org/2000/svg" width="20.005" height="20.075" viewBox="0 0 20.005 20.075">
  <g id="config_icon" transform="translate(-0.056 0)">
    <g id="money_time" transform="translate(0.056 0)">
      <g id="Group_2883" data-name="Group 2883">
        <path id="Path_1400" data-name="Path 1400" d="M14.266,1.417a5.764,5.764,0,0,0-3.145.933A2.72,2.72,0,0,0,10.9.4C9.81-1.107,7.988,2.165,7.151,1.831S4.53-.251,3.348.462c-1.023.616.642,4.753,1.446,5.351a12.784,12.784,0,0,0,2.571.309c.476,0,.888-.026,1.221-.058a5.715,5.715,0,0,0-.105.946c-.387.035-.78.059-1.183.059A13.337,13.337,0,0,1,4.428,6.76C2.839,8.043.056,12.6.056,14.59c0,3.585,3.158,5.485,7.055,5.485s7.053-1.9,7.053-5.485a5.411,5.411,0,0,0-.333-1.607c.144.012.288.022.435.022a5.794,5.794,0,1,0,0-11.589ZM9.313,15.707a1.472,1.472,0,0,1-.333.458,1.7,1.7,0,0,1-.505.319,1.945,1.945,0,0,1-.634.144v.479H6.779v-.622l-.163-.072c-.054-.022-.105-.046-.156-.071v.234H5.4V14.982H6.46a2.327,2.327,0,0,0,.27.262A1.334,1.334,0,0,0,7,15.426a1.083,1.083,0,0,0,.31.107,1.975,1.975,0,0,0,.391.036.891.891,0,0,0,.478-.118.351.351,0,0,0,.19-.307.414.414,0,0,0-.1-.275.843.843,0,0,0-.255-.2,1.6,1.6,0,0,0-.341-.132,3.592,3.592,0,0,0-.369-.08,3.277,3.277,0,0,1-1.032-.3,2,2,0,0,1-.6-.447,1.237,1.237,0,0,1-.274-.5,1.866,1.866,0,0,1-.064-.451,1.421,1.421,0,0,1,.406-1,1.658,1.658,0,0,1,.455-.334,1.82,1.82,0,0,1,.573-.177v-.5H7.842v.578a1.794,1.794,0,0,1,.425.181v-.23H9.328v1.594H8.258c-.086-.095-.169-.181-.25-.255a1.231,1.231,0,0,0-.258-.181,1.294,1.294,0,0,0-.3-.111,1.681,1.681,0,0,0-.383-.039.709.709,0,0,0-.489.152.437.437,0,0,0-.17.327c0,.327.353.546,1.062.653a3,3,0,0,1,1.05.322,1.993,1.993,0,0,1,.6.485,1.317,1.317,0,0,1,.262.514,2.051,2.051,0,0,1,.056.414A1.341,1.341,0,0,1,9.313,15.707Zm5.437-4.051-.484-.576-.484.576A4.477,4.477,0,0,1,9.824,7.714l.639-.536-.629-.529a4.475,4.475,0,0,1,3.96-3.883l.472.561.472-.561A4.479,4.479,0,0,1,18.7,6.644l-.678.567.678.57A4.475,4.475,0,0,1,14.75,11.657Z" transform="translate(-0.056 0)" fill="#686868"/>
        <path id="Path_1401" data-name="Path 1401" d="M22.92,9.146a.636.636,0,0,0-.087-.132l-.557-3.223-.59,3.26h0a.709.709,0,0,0-.137.42.727.727,0,0,0,.725.726.7.7,0,0,0,.238-.044v0l2.194.256L22.921,9.142Z" transform="translate(-8.066 -2.158)" fill="#686868"/>
      </g>
    </g>
  </g>
</svg>
