<svg xmlns="http://www.w3.org/2000/svg" width="17.926" height="20.396" viewBox="0 0 17.926 20.396">
  <g id="depreciation_icon" transform="translate(-31)">
    <path id="Path_1390" data-name="Path 1390" d="M151.6,0H151V.6a4.212,4.212,0,0,0,1.295,3.027h5.776A4.212,4.212,0,0,0,159.365.6V0h-.6a4.206,4.206,0,0,0-3.585,2.1A4.206,4.206,0,0,0,151.6,0Z" transform="translate(-115.22)" fill="#686868"/>
    <path id="Path_1391" data-name="Path 1391" d="M32.2,129.963v3.1a1.787,1.787,0,0,0-1.2,1.683,1.827,1.827,0,0,0,1.793,1.832H47.133a1.827,1.827,0,0,0,1.793-1.832,1.787,1.787,0,0,0-1.2-1.683v-3.1a7.765,7.765,0,0,0-4.927-7.224,1.166,1.166,0,0,0,.147-.544,1.2,1.2,0,0,0-1.2-1.2H38.17a1.2,1.2,0,0,0-1.2,1.2,1.166,1.166,0,0,0,.147.544A7.765,7.765,0,0,0,32.2,129.963Zm11.806.2a1.792,1.792,0,0,1-1.492,2.787v-1.2a.6.6,0,0,0,.5-.929l-1.167-1.751-.174.49-1.126-.4.737-2.072,2.233.452-.237,1.172L43,128.661Zm-6.5-2.681.038.25.927-1.39a1.858,1.858,0,0,1,2.983,0l-.994.663a.614.614,0,0,0-.994,0l-1.11,1.664.533-.044.1,1.192-2.306.189-.355-2.344Zm-1.582,2.681.994.663a.6.6,0,0,0,.5.929h1.7l-.175-.175.845-.845,1.618,1.618-1.618,1.617-.845-.845.175-.175h-1.7a1.792,1.792,0,0,1-1.492-2.787Z" transform="translate(0 -116.18)" fill="#686868"/>
  </g>
</svg>
