<svg xmlns="http://www.w3.org/2000/svg" width="19.946" height="20" viewBox="0 0 19.946 20">
  <g id="edit_icon" transform="translate(-0.62)">
    <g id="Group_2869" data-name="Group 2869" transform="translate(0.62)">
      <g id="Group_2868" data-name="Group 2868" transform="translate(0)">
        <path id="Path_1382" data-name="Path 1382" d="M11.02,16.69l-2.067.531a1.809,1.809,0,0,1-2.2-2.2l.047-.183H5.047a1.087,1.087,0,1,1,0-2.174H7.372a3.04,3.04,0,0,1,.7-1.1l.812-.812H5.047a1.087,1.087,0,1,1,0-2.174h6.016l1.915-1.915-.058,0H5.047a1.087,1.087,0,1,1,0-2.174H12.92a1.087,1.087,0,0,1,1.087,1.087c0,.02,0,.039,0,.058L16.644,3a3.077,3.077,0,0,1,.7-.526V1.232A1.233,1.233,0,0,0,16.114,0H1.853A1.233,1.233,0,0,0,.62,1.232V18.768A1.233,1.233,0,0,0,1.853,20H16.114a1.233,1.233,0,0,0,1.233-1.232v-7.8L12.413,15.9A3.041,3.041,0,0,1,11.02,16.69Z" transform="translate(-0.62)" fill="#686868"/>
        <path id="Path_1383" data-name="Path 1383" d="M171.264,132.788a1.73,1.73,0,0,0-.452.793l-.53,2.062a.5.5,0,0,0,.613.613l2.062-.53a1.73,1.73,0,0,0,.793-.452l7-7-2.485-2.485Z" transform="translate(-162.865 -120.307)" fill="#686868"/>
        <path id="Path_1384" data-name="Path 1384" d="M378.9,78.78a1.757,1.757,0,0,0-2.485,0l-.627.627,2.482,2.488.631-.631A1.757,1.757,0,0,0,378.9,78.78Z" transform="translate(-359.47 -74.861)" fill="#686868"/>
      </g>
    </g>
  </g>
</svg>
