<svg xmlns="http://www.w3.org/2000/svg" width="20.097" height="20.097" viewBox="0 0 20.097 20.097">
  <g id="fee_icon" transform="translate(0)">
    <path id="Path_1392" data-name="Path 1392" d="M91.912,3.572h4.4A10.455,10.455,0,0,1,98.055,1a.558.558,0,0,0,.13-.636A.587.587,0,0,0,97.643,0a3.4,3.4,0,0,0-2.1.683,2.171,2.171,0,0,1-1.437.495A2.171,2.171,0,0,1,92.674.683,3.4,3.4,0,0,0,90.578,0a.587.587,0,0,0-.542.365.558.558,0,0,0,.13.636A10.454,10.454,0,0,1,91.912,3.572Z" transform="translate(-86.456)" fill="#686868"/>
    <path id="Path_1393" data-name="Path 1393" d="M301,452.589v1.178a.589.589,0,0,0,.589.589h7.1a.589.589,0,0,0,.589-.589v-1.178a.589.589,0,0,0-.589-.589h-7.1A.589.589,0,0,0,301,452.589Z" transform="translate(-289.185 -434.258)" fill="#686868"/>
    <path id="Path_1394" data-name="Path 1394" d="M309.282,363.766v-1.178a.589.589,0,0,0-.589-.589h-7.1a.589.589,0,0,0-.589.589v1.178a.589.589,0,0,0,.589.589h7.1A.589.589,0,0,0,309.282,363.766Z" transform="translate(-289.185 -347.791)" fill="#686868"/>
    <path id="Path_1395" data-name="Path 1395" d="M11.74,125.773c-1.154-1.13-2.1-2.088-2.284-3.6h.553a.589.589,0,0,0,0-1.178H5.3a.589.589,0,0,0,0,1.178h.553c-.188,1.507-1.13,2.465-2.284,3.6C1.9,127.41,0,129.27,0,133.521a2.93,2.93,0,0,0,2.944,2.826h7.762a1.746,1.746,0,0,1-.108-.589v-4.71a1.768,1.768,0,0,1,1.766-1.766h2.109A11.946,11.946,0,0,0,11.74,125.773Zm-4.086,3.509a1.762,1.762,0,0,1,.589,3.424v.7a.589.589,0,0,1-1.178,0v-.7a1.763,1.763,0,0,1-1.178-1.658.589.589,0,0,1,1.178,0,.589.589,0,1,0,.589-.589,1.762,1.762,0,0,1-.589-3.424v-.7a.589.589,0,0,1,1.178,0v.7a1.763,1.763,0,0,1,1.178,1.658.589.589,0,0,1-1.178,0,.589.589,0,1,0-.589.589Z" transform="translate(0 -116.251)" fill="#686868"/>
  </g>
</svg>
