<svg xmlns="http://www.w3.org/2000/svg" width="25.178" height="23.512" viewBox="0 0 25.178 23.512">
  <g id="Heading_settings_icon" transform="translate(0.424 0.477)">
    <g id="Group_806" data-name="Group 806" transform="translate(-0.424 -0.477)">
      <path id="Path_256" data-name="Path 256" d="M25.076,10.178a2.061,2.061,0,0,0-2.754-1.666,1.031,1.031,0,0,1-1.259-.565,9.323,9.323,0,0,0-.935-1.625,1,1,0,0,1,.141-1.377,2.017,2.017,0,0,0,.74-1.607,2.056,2.056,0,0,0-.82-1.605A12.612,12.612,0,0,0,17.474.165,2.086,2.086,0,0,0,16.663,0a2.032,2.032,0,0,0-2.016,1.7,1.006,1.006,0,0,1-1.128.809,8.907,8.907,0,0,0-1.862,0A1.007,1.007,0,0,1,10.529,1.7,2.032,2.032,0,0,0,8.513,0,2.078,2.078,0,0,0,7.7.165,12.549,12.549,0,0,0,4.988,1.732a2.057,2.057,0,0,0-.819,1.6,2.022,2.022,0,0,0,.74,1.609,1,1,0,0,1,.141,1.375,9.328,9.328,0,0,0-.936,1.625,1,1,0,0,1-1.27.561A2.04,2.04,0,0,0,.1,10.178,12.573,12.573,0,0,0,0,11.756a12.389,12.389,0,0,0,.1,1.578A2.061,2.061,0,0,0,2.856,15a1.031,1.031,0,0,1,1.259.565,9.322,9.322,0,0,0,.935,1.625,1,1,0,0,1-.141,1.377,2.017,2.017,0,0,0-.74,1.607,2.056,2.056,0,0,0,.82,1.605A12.612,12.612,0,0,0,7.7,23.347a2.087,2.087,0,0,0,.811.165,2.032,2.032,0,0,0,2.016-1.7A1.01,1.01,0,0,1,11.658,21a8.908,8.908,0,0,0,1.862,0,1.009,1.009,0,0,1,1.128.809,2.033,2.033,0,0,0,2.016,1.7,2.078,2.078,0,0,0,.81-.165,12.542,12.542,0,0,0,2.714-1.567,2.058,2.058,0,0,0,.82-1.6,2.022,2.022,0,0,0-.74-1.609,1,1,0,0,1-.141-1.375,9.328,9.328,0,0,0,.936-1.625A1,1,0,0,1,22.335,15a2.017,2.017,0,0,0,.714.131,2.059,2.059,0,0,0,2.028-1.8,12.7,12.7,0,0,0,.1-1.579A12.489,12.489,0,0,0,25.076,10.178ZM12.589,15.952a4.2,4.2,0,1,1,4.2-4.2A4.2,4.2,0,0,1,12.589,15.952Z" transform="translate(0 0)" fill="#1e5975"/>
    </g>
  </g>
</svg>
