<svg xmlns="http://www.w3.org/2000/svg" width="19.996" height="17.496" viewBox="0 0 19.996 17.496">
  <path id="lease_icon" d="M18.488,6.456l-1.4-4.674A2.484,2.484,0,0,0,14.692,0H5.3A2.484,2.484,0,0,0,2.909,1.782l-1.4,4.674A2.5,2.5,0,0,0,0,8.748v5A1.25,1.25,0,0,0,1.25,15h0v1.25A1.25,1.25,0,0,0,2.5,17.5h1.25A1.25,1.25,0,0,0,5,16.246V15H15v1.25a1.25,1.25,0,0,0,1.25,1.25H17.5a1.25,1.25,0,0,0,1.25-1.25V15h0A1.25,1.25,0,0,0,20,13.747v-5a2.5,2.5,0,0,0-1.507-2.292ZM5.3,2.5h9.388l1.125,3.749H4.179L5.3,2.5ZM5,11.872a1.25,1.25,0,1,1,1.25-1.25A1.25,1.25,0,0,1,5,11.872Zm10,0a1.25,1.25,0,1,1,1.25-1.25A1.25,1.25,0,0,1,15,11.872Z" transform="translate(0)" fill="#686868"/>
</svg>
