<svg xmlns="http://www.w3.org/2000/svg" width="15.045" height="20.06" viewBox="0 0 15.045 20.06">
  <g id="list_icon" transform="translate(-64)">
    <g id="Group_2885" data-name="Group 2885" transform="translate(67.761)">
      <g id="Group_2884" data-name="Group 2884">
        <path id="Path_1412" data-name="Path 1412" d="M166.9,1.254h-1.362a1.881,1.881,0,0,0-3.547,0h-1.36a.627.627,0,0,0-.627.627V4.388a.627.627,0,0,0,.627.627H166.9a.627.627,0,0,0,.627-.627V1.881A.627.627,0,0,0,166.9,1.254Z" transform="translate(-160)" fill="#686868"/>
      </g>
    </g>
    <g id="Group_2887" data-name="Group 2887" transform="translate(64 2.507)">
      <g id="Group_2886" data-name="Group 2886">
        <path id="Path_1413" data-name="Path 1413" d="M77.791,64H76.537v1.881a1.883,1.883,0,0,1-1.881,1.881H68.388a1.883,1.883,0,0,1-1.881-1.881V64H65.254A1.256,1.256,0,0,0,64,65.254V80.3a1.24,1.24,0,0,0,1.254,1.254H77.791A1.24,1.24,0,0,0,79.045,80.3V65.254A1.24,1.24,0,0,0,77.791,64ZM71.339,75.1l-2.507,2.507a.63.63,0,0,1-.888,0l-1.254-1.254a.627.627,0,0,1,.886-.886l.811.81,2.064-2.064a.627.627,0,0,1,.888.886Zm0-5.015-2.507,2.507a.63.63,0,0,1-.888,0l-1.254-1.254a.627.627,0,1,1,.886-.886l.811.81L70.452,69.2a.627.627,0,0,1,.888.886Zm4.571,6.452H73.4a.627.627,0,1,1,0-1.254h2.507a.627.627,0,0,1,0,1.254Zm0-5.015H73.4a.627.627,0,1,1,0-1.254h2.507a.627.627,0,0,1,0,1.254Z" transform="translate(-64 -64)" fill="#686868"/>
      </g>
    </g>
  </g>
</svg>
