<svg xmlns="http://www.w3.org/2000/svg" width="20.027" height="20.027" viewBox="0 0 20.027 20.027">
  <g id="maintenance_icon" transform="translate(-0.001 0)">
    <g id="Group_2876" data-name="Group 2876" transform="translate(0.001 0)">
      <g id="Group_2875" data-name="Group 2875" transform="translate(0 0)">
        <path id="Path_1396" data-name="Path 1396" d="M5.737,3.248V1.831a.586.586,0,0,0-.4-.556L1.6.031A.587.587,0,0,0,1,.172L.173,1a.588.588,0,0,0-.142.6L1.275,5.336a.588.588,0,0,0,.557.4H3.248L5.4,7.889,7.889,5.4Z" transform="translate(-0.001 0)" fill="#686868"/>
      </g>
    </g>
    <g id="Group_2878" data-name="Group 2878" transform="translate(5.643 5.649)">
      <g id="Group_2877" data-name="Group 2877">
        <path id="Path_1397" data-name="Path 1397" d="M158.13,154.139l-5.564-5.564a1.838,1.838,0,0,0-1.092-.52,1.759,1.759,0,0,1-1.381-1.379,1.832,1.832,0,0,0-.519-1.093l-.994-.994a.6.6,0,0,0-.83,0l-3.319,3.319a.587.587,0,0,0,0,.83l.993.994a1.841,1.841,0,0,0,1.091.52,1.756,1.756,0,0,1,1.381,1.38,1.832,1.832,0,0,0,.519,1.092l5.565,5.564a1.761,1.761,0,0,0,2.489,0l.415-.415-6.23-6.23a.587.587,0,1,1,.83-.83l6.23,6.23.415-.415A1.762,1.762,0,0,0,158.13,154.139Z" transform="translate(-144.261 -144.425)" fill="#686868"/>
      </g>
    </g>
    <g id="Group_2880" data-name="Group 2880" transform="translate(0.005 11.337)">
      <g id="Group_2879" data-name="Group 2879">
        <path id="Path_1398" data-name="Path 1398" d="M8.857,293.13a2.846,2.846,0,0,1-.609-1.382.583.583,0,0,0-.461-.457,2.978,2.978,0,0,1-1.689-.841l-.6-.6-.542.542a4.107,4.107,0,1,0,3.319,3.319Zm-3.38,2.55a1.76,1.76,0,1,1,0-2.488A1.759,1.759,0,0,1,5.477,295.68Z" transform="translate(-0.125 -289.851)" fill="#686868"/>
      </g>
    </g>
    <g id="Group_2882" data-name="Group 2882" transform="translate(11.378 0.008)">
      <g id="Group_2881" data-name="Group 2881">
        <path id="Path_1399" data-name="Path 1399" d="M299.116,2.543a.587.587,0,0,0-.944-.161l-1.76,1.767h-.846V3.313l1.777-1.762a.586.586,0,0,0-.162-.944,4.108,4.108,0,0,0-5.813,4.431l-.5.5.6.6a2.981,2.981,0,0,1,.841,1.7.584.584,0,0,0,.461.456,2.857,2.857,0,0,1,1.378.609l.54-.54a4.108,4.108,0,0,0,4.43-5.814Z" transform="translate(-290.867 -0.207)" fill="#686868"/>
      </g>
    </g>
  </g>
</svg>
