<svg xmlns="http://www.w3.org/2000/svg" width="14.731" height="20" viewBox="0 0 14.731 20">
  <g id="point_icon" transform="translate(-22.673)">
    <path id="Path_1405" data-name="Path 1405" d="M35.955,2.37h-.413a1.446,1.446,0,0,0-1.4-1.087H32.177a2.423,2.423,0,0,0-4.276,0H25.933a1.446,1.446,0,0,0-1.4,1.087h-.413a1.45,1.45,0,0,0-1.449,1.449V18.551A1.449,1.449,0,0,0,24.122,20H35.955A1.45,1.45,0,0,0,37.4,18.551V3.819A1.448,1.448,0,0,0,35.955,2.37ZM30.039,1.4A1.042,1.042,0,1,1,29,2.445,1.042,1.042,0,0,1,30.039,1.4ZM25.827,15.29a.724.724,0,1,1,.724-.725A.724.724,0,0,1,25.827,15.29Zm0-3.623a.724.724,0,1,1,.724-.724A.724.724,0,0,1,25.827,11.667Zm0-3.623a.724.724,0,1,1,.724-.724A.724.724,0,0,1,25.827,8.045Zm8.744,7.245H28.209a.724.724,0,0,1,0-1.449h6.363a.724.724,0,0,1,0,1.449Zm0-3.623H28.209a.724.724,0,0,1,0-1.449h6.363a.724.724,0,0,1,0,1.449Zm0-3.623H28.209a.724.724,0,0,1,0-1.449h6.363a.724.724,0,0,1,0,1.449Z" fill="#686868"/>
  </g>
</svg>
