<svg xmlns="http://www.w3.org/2000/svg" width="20.16" height="20.078" viewBox="0 0 20.16 20.078">
  <g id="rate_icon" transform="translate(0 -0.114)">
    <g id="Group_2872" data-name="Group 2872" transform="translate(0 5.804)">
      <g id="Group_2871" data-name="Group 2871">
        <path id="Path_1388" data-name="Path 1388" d="M13.257,23.581a6.034,6.034,0,0,0-.038-1.459l1.1-.492a7.278,7.278,0,0,0-1.334-3l-1.106.492a6.054,6.054,0,0,0-1.058-1l.433-1.129A7.31,7.31,0,0,0,8.2,15.816l-.434,1.13a6.034,6.034,0,0,0-1.459.038l-.49-1.1a7.3,7.3,0,0,0-2.993,1.341l.486,1.092a6.044,6.044,0,0,0-1,1.058l-1.126-.432a7.18,7.18,0,0,0-.766,1.463A7.391,7.391,0,0,0,0,22.005l1.129.433A6.034,6.034,0,0,0,1.168,23.9l-1.1.492a7.272,7.272,0,0,0,1.334,3l1.1-.492a6.032,6.032,0,0,0,1.059,1l-.433,1.13A7.31,7.31,0,0,0,6.189,30.2l.434-1.13a6.053,6.053,0,0,0,1.459-.039l.49,1.1a7.3,7.3,0,0,0,2.993-1.341L11.077,27.7a6.045,6.045,0,0,0,1-1.058l1.126.432a7.186,7.186,0,0,0,.766-1.463,7.312,7.312,0,0,0,.413-1.6Zm-3,.6a3.28,3.28,0,1,1-1.888-4.237A3.28,3.28,0,0,1,10.255,24.185Z" transform="translate(0 -15.816)" fill="#686868"/>
      </g>
    </g>
    <g id="Group_2874" data-name="Group 2874" transform="translate(11.561 0.114)">
      <g id="Group_2873" data-name="Group 2873" transform="translate(0 0)">
        <path id="Path_1389" data-name="Path 1389" d="M39.716,4.564a3.526,3.526,0,0,0-.061-.641l.847-.489A4.445,4.445,0,0,0,39.333,1.4l-.849.49a3.489,3.489,0,0,0-1.11-.64V.275a4.334,4.334,0,0,0-2.342,0v.98a3.5,3.5,0,0,0-1.11.64l-.849-.49A4.455,4.455,0,0,0,31.9,3.434l.847.489a3.386,3.386,0,0,0,0,1.282l-.847.489a4.453,4.453,0,0,0,1.169,2.03l.849-.49a3.493,3.493,0,0,0,1.11.64v.98a4.334,4.334,0,0,0,2.342,0v-.98a3.5,3.5,0,0,0,1.11-.64l.849.49A4.445,4.445,0,0,0,40.5,5.695l-.847-.489A3.5,3.5,0,0,0,39.716,4.564ZM36.2,6.2a1.64,1.64,0,1,1,1.639-1.64A1.64,1.64,0,0,1,36.2,6.2Z" transform="translate(-31.903 -0.114)" fill="#686868"/>
      </g>
    </g>
  </g>
</svg>
