<svg id="roles_icon" xmlns="http://www.w3.org/2000/svg" width="20.202" height="20.202" viewBox="0 0 20.202 20.202">
  <g id="Group_2870" data-name="Group 2870">
    <path id="Path_1387" data-name="Path 1387" d="M19.481,14.43H18.038V11.544a.722.722,0,0,0-.722-.722H10.823V5.772H14.43a.722.722,0,0,0,.722-.722V.721A.722.722,0,0,0,14.43,0H5.772a.722.722,0,0,0-.722.722V5.051a.722.722,0,0,0,.722.722H9.38v5.051H2.886a.722.722,0,0,0-.722.722V14.43H.722A.721.721,0,0,0,0,15.152v4.329a.722.722,0,0,0,.722.722H5.051a.722.722,0,0,0,.722-.722V15.152a.722.722,0,0,0-.722-.722H3.608V12.266H9.38V14.43H7.937a.722.722,0,0,0-.722.722v4.329a.722.722,0,0,0,.722.722h4.329a.722.722,0,0,0,.722-.722V15.152a.722.722,0,0,0-.722-.722H10.823V12.266h5.772V14.43H15.152a.722.722,0,0,0-.722.722v4.329a.722.722,0,0,0,.722.722h4.329a.722.722,0,0,0,.722-.722V15.152A.722.722,0,0,0,19.481,14.43Z" fill="#646464"/>
  </g>
</svg>
