<svg xmlns="http://www.w3.org/2000/svg" width="20.149" height="20" viewBox="0 0 20.149 20">
  <g id="subcompany_icon" transform="translate(0 -0.178)">
    <path id="Path_1385" data-name="Path 1385" d="M10.448,1.6,1.636.2A1.376,1.376,0,0,0,.5.524,1.531,1.531,0,0,0,0,1.649v17.69a.824.824,0,0,0,.8.84H3.408V15.77a1.434,1.434,0,0,1,1.4-1.469h2a1.434,1.434,0,0,1,1.4,1.469v4.408h3.408V3.051A1.452,1.452,0,0,0,10.448,1.6ZM4.41,12.412h-1.2a.63.63,0,0,1,0-1.259h1.2a.63.63,0,0,1,0,1.259Zm0-2.519h-1.2a.63.63,0,0,1,0-1.259h1.2a.63.63,0,0,1,0,1.259Zm0-2.519h-1.2a.63.63,0,0,1,0-1.259h1.2a.63.63,0,0,1,0,1.259Zm0-2.519h-1.2a.63.63,0,0,1,0-1.259h1.2a.63.63,0,0,1,0,1.259ZM8.42,12.412h-1.2a.63.63,0,0,1,0-1.259h1.2a.63.63,0,0,1,0,1.259Zm0-2.519h-1.2a.63.63,0,0,1,0-1.259h1.2a.63.63,0,0,1,0,1.259Zm0-2.519h-1.2a.63.63,0,0,1,0-1.259h1.2a.63.63,0,0,1,0,1.259Zm0-2.519h-1.2a.63.63,0,0,1,0-1.259h1.2a.63.63,0,0,1,0,1.259Z" transform="translate(0 0)" fill="#686868"/>
    <path id="Path_1386" data-name="Path 1386" d="M21.209,10.547,15.5,9.351V21.1h5.413a1.4,1.4,0,0,0,1.4-1.4V11.918A1.4,1.4,0,0,0,21.209,10.547Zm-1.9,8.145h-1.2a.6.6,0,1,1,0-1.2h1.2a.6.6,0,1,1,0,1.2Zm0-2.406h-1.2a.6.6,0,1,1,0-1.2h1.2a.6.6,0,0,1,0,1.2Zm0-2.406h-1.2a.6.6,0,0,1,0-1.2h1.2a.6.6,0,0,1,0,1.2Z" transform="translate(-2.167 -0.92)" fill="#686868"/>
  </g>
</svg>
