<svg xmlns="http://www.w3.org/2000/svg" width="15.202" height="20.297" viewBox="0 0 15.202 20.297">
  <g id="terms_icon" transform="translate(-64.268)">
    <g id="Group_2857" data-name="Group 2857" transform="translate(64.268)">
      <path id="Path_1373" data-name="Path 1373" d="M78.875,0H64.863a.6.6,0,0,0-.595.595V17.951a.6.6,0,0,0,.174.42l1.752,1.752a.6.6,0,0,0,.841,0l1.331-1.331L69.7,20.123a.595.595,0,0,0,.841,0l1.331-1.331L73.2,20.123a.595.595,0,0,0,.841,0l1.331-1.331L76.7,20.123a.595.595,0,0,0,.841,0L79.3,18.372a.6.6,0,0,0,.174-.42V.595A.6.6,0,0,0,78.875,0Zm-7.6,4.467V3.779a.595.595,0,0,1,1.189,0v.679h.679a.595.595,0,1,1,0,1.189h-1.7a.679.679,0,0,0,0,1.358h.849a1.868,1.868,0,0,1,.17,3.729v.687a.595.595,0,0,1-1.189,0v-.679h-.679a.595.595,0,1,1,0-1.189h1.7a.679.679,0,1,0,0-1.358h-.849a1.868,1.868,0,0,1-.17-3.729ZM75.054,15.2H68.684a.595.595,0,1,1,0-1.189h6.369a.595.595,0,0,1,0,1.189Z" transform="translate(-64.268)" fill="#686868"/>
    </g>
  </g>
</svg>
