<svg xmlns="http://www.w3.org/2000/svg" width="20.032" height="15.561" viewBox="0 0 20.032 15.561">
  <g id="user_icon" transform="translate(0 -57.142)">
    <g id="Group_2861" data-name="Group 2861" transform="translate(2.421 57.142)">
      <g id="Group_2860" data-name="Group 2860" transform="translate(0 0)">
        <path id="Path_1378" data-name="Path 1378" d="M65.529,57.142a3.883,3.883,0,1,0,3.656,3.877A3.776,3.776,0,0,0,65.529,57.142Z" transform="translate(-61.873 -57.142)" fill="#686868"/>
      </g>
    </g>
    <g id="Group_2863" data-name="Group 2863" transform="translate(11.254 57.697)">
      <g id="Group_2862" data-name="Group 2862">
        <path id="Path_1379" data-name="Path 1379" d="M290.773,71.321h-.025a3.033,3.033,0,0,0-2.225,1.006A3.463,3.463,0,0,0,288.561,77a3.034,3.034,0,0,0,2.216.969h.025a3.033,3.033,0,0,0,2.225-1.006,3.4,3.4,0,0,0,.886-2.342A3.24,3.24,0,0,0,290.773,71.321Z" transform="translate(-287.637 -71.321)" fill="#686868"/>
      </g>
    </g>
    <g id="Group_2865" data-name="Group 2865" transform="translate(10.562 64.975)">
      <g id="Group_2864" data-name="Group 2864" transform="translate(0 0)">
        <path id="Path_1380" data-name="Path 1380" d="M273.942,257.358h-.3a5.468,5.468,0,0,0-3.679,1.419,7.059,7.059,0,0,1,2.756,5.237h6.713v-1.169A5.494,5.494,0,0,0,273.942,257.358Z" transform="translate(-269.96 -257.358)" fill="#686868"/>
      </g>
    </g>
    <g id="Group_2867" data-name="Group 2867" transform="translate(0 66.109)">
      <g id="Group_2866" data-name="Group 2866" transform="translate(0 0)">
        <path id="Path_1381" data-name="Path 1381" d="M12.142,291.841a5.893,5.893,0,0,0-5.882-5.523H5.895A5.894,5.894,0,0,0,0,292.213v.7H12.154v-.7Q12.154,292.025,12.142,291.841Z" transform="translate(0 -286.318)" fill="#686868"/>
      </g>
    </g>
  </g>
</svg>
